<?xml version="1.0" encoding="UTF-8"?><svg id="Layer_2" xmlns="http://www.w3.org/2000/svg" viewBox="0 0 18.45 18.45"><defs><style>.cls-1{fill:#fff;}</style></defs><g id="Layer_1-2"><path class="cls-1" d="M9.23,2.89c-3.49,0-6.33,2.84-6.33,6.33s2.84,6.33,6.33,6.33,6.33-2.84,6.33-6.33-2.84-6.33-6.33-6.33Zm0,12.1c-3.18,0-5.76-2.59-5.76-5.76S6.05,3.46,9.23,3.46s5.76,2.59,5.76,5.76-2.59,5.76-5.76,5.76Zm-3.33-3.23c.1,.13,.07,.3-.05,.4-.05,.04-.11,.06-.17,.06-.09,0-.17-.04-.23-.11-.05-.06-.1-.13-.14-.2-.09-.13-.06-.31,.07-.4,.13-.09,.31-.06,.4,.07,.04,.06,.08,.12,.13,.18Zm-.7-.58s-.07,.02-.11,.02c-.11,0-.22-.07-.26-.18-.23-.57-.35-1.18-.35-1.8,0-.16,.13-.28,.28-.28s.28,.13,.28,.28c0,.55,.1,1.08,.31,1.58,.06,.15-.01,.31-.16,.37ZM13.35,6.85c.08,.14,.03,.31-.1,.39-.04,.03-.09,.04-.14,.04-.1,0-.19-.05-.25-.14-.75-1.29-2.14-2.09-3.63-2.09-.16,0-.28-.13-.28-.28s.13-.28,.28-.28c1.69,0,3.27,.91,4.12,2.38ZM8.94,1.75V.28c0-.16,.13-.28,.28-.28s.28,.13,.28,.28V1.75c0,.16-.13,.28-.28,.28s-.28-.13-.28-.28Zm-4.43-.13c-.08-.14-.03-.31,.1-.39,.14-.08,.31-.03,.39,.1l.73,1.27c.08,.14,.03,.31-.1,.39-.04,.03-.09,.04-.14,.04-.1,0-.19-.05-.25-.14l-.73-1.27ZM1.24,4.61c.08-.14,.25-.18,.39-.1l1.27,.73c.14,.08,.18,.25,.1,.39-.05,.09-.15,.14-.25,.14-.05,0-.1-.01-.14-.04l-1.27-.73c-.14-.08-.18-.25-.1-.39Zm14.21,1.02c-.08-.14-.03-.31,.1-.39l1.27-.73c.14-.08,.31-.03,.39,.1s.03,.31-.1,.39l-1.27,.73s-.09,.04-.14,.04c-.1,0-.19-.05-.25-.14Zm-2.74-3.02l.74-1.27c.08-.14,.25-.18,.39-.1,.14,.08,.18,.25,.1,.39l-.74,1.27c-.05,.09-.15,.14-.25,.14-.05,0-.1-.01-.14-.04-.14-.08-.18-.25-.1-.39Zm-3.21,14.09v1.47c0,.16-.13,.28-.28,.28s-.28-.13-.28-.28v-1.47c0-.16,.13-.28,.28-.28s.28,.13,.28,.28Zm8.94-7.47c0,.16-.13,.28-.28,.28h-1.47c-.16,0-.28-.13-.28-.28s.13-.28,.28-.28h1.47c.16,0,.28,.13,.28,.28Zm-16.7,.28H.28c-.16,0-.28-.13-.28-.28s.13-.28,.28-.28H1.75c.16,0,.28,.13,.28,.28s-.13,.28-.28,.28Zm12.19,7.32c.08,.14,.03,.31-.1,.39-.04,.03-.09,.04-.14,.04-.1,0-.19-.05-.25-.14l-.74-1.27c-.08-.14-.03-.31,.1-.39,.14-.08,.31-.03,.39,.1l.74,1.27Zm3.27-2.99c-.05,.09-.15,.14-.25,.14-.05,0-.1-.01-.14-.04l-1.27-.73c-.14-.08-.18-.25-.1-.39s.25-.18,.39-.1l1.27,.73c.14,.08,.18,.25,.1,.39Zm-14.21-1.02c.08,.14,.03,.31-.1,.39l-1.27,.73s-.09,.04-.14,.04c-.1,0-.19-.05-.25-.14-.08-.14-.03-.31,.1-.39l1.27-.73c.14-.08,.31-.03,.39,.1Zm2.73,3.02l-.73,1.27c-.05,.09-.15,.14-.25,.14-.05,0-.1-.01-.14-.04-.14-.08-.18-.25-.1-.39l.73-1.27c.08-.14,.25-.18,.39-.1,.14,.08,.18,.25,.1,.39Z"/></g></svg>