<?xml version="1.0" encoding="UTF-8"?><svg id="Layer_2" xmlns="http://www.w3.org/2000/svg" viewBox="0 0 16.36 16.36"><defs><style>.cls-1{fill:#fff;}</style></defs><g id="Layer_1-2"><path class="cls-1" d="M14.34,2.81s0-.02-.02-.02c-.02-.03-.05-.05-.07-.08-.03-.04-.07-.07-.1-.11-.21-.23-.44-.45-.68-.65-.04-.04-.08-.07-.13-.11-.07-.05-.13-.11-.2-.16-.05-.04-.1-.08-.15-.11-.04-.03-.08-.06-.12-.09,0,0-.01,0-.02,0-1.33-.93-2.94-1.47-4.68-1.47C3.73,0,.11,3.56,0,7.98v.06s0,.09,0,.14H0c0,.11,0,.23,0,.35,0,.05,0,.1,0,.15,0,.05,0,.1,.01,.15,.01,.14,.03,.28,.04,.41v.03h0c.09,.67,.26,1.31,.5,1.91v.02s.03,.05,.04,.07c.02,.06,.05,.11,.07,.17,.03,.07,.06,.14,.09,.2,.02,.04,.04,.08,.06,.12,.04,.09,.09,.17,.13,.26l.03,.06c.3,.55,.67,1.07,1.09,1.54,0,0,.02,.01,.02,.02,1.5,1.66,3.66,2.7,6.07,2.7,3.22,0,6-1.87,7.34-4.57,0,0,0-.01,.01-.02,.06-.13,.12-.26,.17-.39,.01-.03,.02-.06,.04-.09,.03-.08,.06-.16,.09-.24,.02-.06,.04-.11,.06-.17,.02-.05,.04-.11,.05-.16,.02-.07,.05-.15,.07-.22v-.04h.01c.21-.74,.33-1.5,.33-2.29,0-2.06-.76-3.93-2.02-5.37Zm-1.66-.76c.11,.08,.21,.16,.31,.24,.05,.04,.1,.08,.15,.12,.07,.06,.15,.13,.22,.2,.03,.02,.05,.05,.08,.07H7.98c-.19,0-.34-.15-.34-.34s.15-.34,.34-.34h4.63s.04,.03,.07,.05ZM.58,8.43c0-.05,0-.11,0-.16h1.91c.19,0,.34,.15,.34,.34s-.15,.34-.34,.34H.61c-.02-.18-.03-.35-.03-.52Zm1.75,4.61c-.05-.06-.09-.12-.14-.18-.04-.05-.08-.11-.12-.16-.05-.07-.1-.13-.14-.2-.04-.06-.08-.12-.13-.19-.04-.06-.08-.12-.12-.18-.07-.12-.14-.24-.21-.36-.02-.04-.05-.09-.07-.13-.05-.11-.11-.21-.16-.32l-.03-.07c.09-.02,.19-.04,.28-.04,.61,0,1.1,.49,1.1,1.1,0,.27-.1,.53-.27,.72Zm5.85,2.75c-2.14,0-4.08-.89-5.47-2.33,.29-.31,.46-.72,.46-1.15,0-.92-.75-1.67-1.67-1.67-.17,0-.34,.03-.5,.08-.14-.39-.25-.79-.32-1.21h1.79c.5,0,.91-.41,.91-.91s-.41-.91-.91-.91H.59C.84,3.72,4.14,.57,8.18,.57c1.27,0,2.46,.31,3.51,.86h-3.71c-.5,0-.91,.41-.91,.91s.41,.91,.91,.91h5.99c1.13,1.33,1.81,3.05,1.81,4.92,0,.67-.09,1.31-.25,1.93h-1.79c-.5,0-.91,.41-.91,.91s.41,.91,.91,.91h1.05c-1.31,2.3-3.78,3.86-6.62,3.86Zm7.17-5.06c-.02,.06-.04,.12-.07,.18-.02,.06-.05,.13-.07,.19-.02,.04-.03,.08-.05,.11-.02,.05-.05,.1-.07,.15h-1.34c-.19,0-.34-.15-.34-.34s.15-.34,.34-.34h1.62l-.02,.05Zm-7.97-.32c-.75,0-1.37,.61-1.37,1.37s.61,1.37,1.37,1.37,1.37-.61,1.37-1.37-.61-1.37-1.37-1.37Zm0,2.16c-.44,0-.8-.36-.8-.8s.36-.8,.8-.8,.8,.36,.8,.8-.36,.8-.8,.8Zm3.56-8.1c-1.22,0-2.21,.99-2.21,2.21s.99,2.21,2.21,2.21,2.21-.99,2.21-2.21-.99-2.21-2.21-2.21Zm0,3.86c-.91,0-1.64-.74-1.64-1.64s.74-1.64,1.64-1.64,1.64,.74,1.64,1.64-.74,1.64-1.64,1.64ZM4.17,4.22c-.76,0-1.37,.62-1.37,1.37s.62,1.37,1.37,1.37,1.37-.62,1.37-1.37-.62-1.37-1.37-1.37Zm0,2.18c-.44,0-.81-.36-.81-.81s.36-.81,.81-.81,.81,.36,.81,.81-.36,.81-.81,.81Z"/></g></svg>