<?xml version="1.0" encoding="UTF-8"?><svg id="Layer_2" xmlns="http://www.w3.org/2000/svg" viewBox="0 0 18.07 8.94"><defs><style>.cls-1{fill:#fff;}</style></defs><g id="Layer_1-2"><path class="cls-1" d="M16.32,4.27s0-.07,0-.1c0-1.6-1.3-2.91-2.91-2.91-.57,0-1.11,.16-1.58,.47-.85-1.09-2.14-1.73-3.53-1.73-1.93,0-3.63,1.23-4.24,3.04-.33-.12-.68-.18-1.03-.18-1.68,0-3.04,1.36-3.04,3.04s1.36,3.04,3.04,3.04H15.69c1.31,0,2.38-1.07,2.38-2.38,0-1.09-.72-2.01-1.75-2.29Zm-.63,4.1H3.04c-1.36,0-2.47-1.11-2.47-2.47S1.68,3.43,3.04,3.43c.31,0,.61,.06,.89,.17-.16,1.1,.1,1.91,.12,1.95,.04,.12,.15,.19,.27,.19,.03,0,.06,0,.09-.01,.15-.05,.23-.21,.18-.36,0,0-.26-.82-.06-1.88,.45-1.72,2-2.92,3.78-2.92,1.29,0,2.5,.64,3.23,1.72,.04,.07,.11,.11,.19,.12,.08,.01,.16,0,.22-.06,.42-.34,.92-.51,1.46-.51,1.29,0,2.34,1.05,2.34,2.34,0,.09,0,.18-.02,.29-.02,.15,.09,.29,.24,.32,.89,.14,1.53,.89,1.53,1.78,0,1-.81,1.81-1.81,1.81Z"/></g></svg>