<?xml version="1.0" encoding="UTF-8"?><svg id="Layer_2" xmlns="http://www.w3.org/2000/svg" viewBox="0 0 19.19 11.82"><defs><style>.cls-1{fill:#fff;}</style></defs><g id="Layer_1-2"><path class="cls-1" d="M17.33,4.94s0-.08,0-.12c0-1.7-1.38-3.08-3.08-3.08-.61,0-1.18,.17-1.68,.5-.9-1.16-2.28-1.85-3.75-1.85-.69,0-1.36,.15-1.96,.43-.46-.52-1.13-.83-1.82-.83-1.03,0-1.93,.64-2.28,1.58-.12-.03-.25-.04-.38-.04-.92,0-1.67,.75-1.67,1.67,0,.39,.13,.76,.37,1.05-.66,.59-1.08,1.44-1.08,2.4,0,1.78,1.44,3.22,3.22,3.22h2.82s0,.07,0,.1c0,1.02,.83,1.84,1.84,1.84h6.46c1.16,0,2.11-.84,2.3-1.95,.01,0,.03,0,.04,0,1.39,0,2.51-1.13,2.51-2.51,0-1.15-.77-2.14-1.86-2.42ZM1.27,3.21c0-.61,.5-1.11,1.11-1.11,.08,0,.17,.01,.25,.03-.05,.5,.03,.78,.04,.81,.04,.12,.15,.19,.27,.19,.03,0,.06,0,.09-.01,.15-.05,.23-.21,.18-.36,0,0-.08-.26,0-.77,.2-.84,.95-1.43,1.82-1.43,.49,0,.95,.2,1.3,.53-.93,.57-1.65,1.46-2.01,2.54-.36-.13-.73-.2-1.11-.2-.62,0-1.19,.18-1.69,.48-.17-.2-.26-.45-.26-.71ZM14.34,11.25H7.88c-.7,0-1.27-.57-1.27-1.27s.57-1.27,1.27-1.27c.12,0,.23,.02,.35,.05,.08,.02,.17,0,.24-.04,.07-.05,.12-.12,.12-.2,.14-1.24,1.19-2.17,2.44-2.17,.94,0,1.81,.55,2.21,1.4h0c.26,.53,.17,1.2,.17,1.21-.02,.16,.09,.3,.24,.32,.01,0,.03,0,.04,0,.14,0,.26-.1,.28-.24,0-.03,.09-.64-.11-1.24,.15-.04,.31-.07,.47-.07,.97,0,1.77,.79,1.77,1.77s-.79,1.77-1.77,1.77Zm2.34-1.94h-.01c-.09-1.2-1.1-2.16-2.33-2.16-.24,0-.48,.04-.71,.11-.54-.91-1.53-1.49-2.6-1.49-1.43,0-2.65,1-2.95,2.37-.07,0-.13-.01-.2-.01-.78,0-1.45,.49-1.71,1.17H3.22c-1.46,0-2.65-1.19-2.65-2.65s1.19-2.65,2.65-2.65c.33,0,.66,.07,.97,.19-.18,1.17,.11,2.04,.12,2.08,.04,.12,.15,.19,.27,.19,.03,0,.06,0,.09-.01,.15-.05,.23-.21,.18-.36,0,0-.28-.88-.06-2.01,.3-1.17,1.09-2.12,2.11-2.65h.02c.58-.31,1.23-.47,1.91-.47,1.38,0,2.67,.69,3.45,1.83,.04,.07,.11,.11,.19,.12,.08,.01,.16,0,.22-.06,.45-.36,.99-.55,1.57-.55,1.38,0,2.51,1.12,2.51,2.51,0,.09,0,.19-.02,.31-.02,.15,.09,.29,.24,.32,.95,.15,1.64,.95,1.64,1.92,0,1.07-.87,1.94-1.94,1.94Z"/></g></svg>