<?xml version="1.0" encoding="UTF-8"?><svg id="Layer_2" xmlns="http://www.w3.org/2000/svg" viewBox="0 0 18.77 15.1"><defs><style>.cls-1{fill:#fff;}</style></defs><g id="Layer_1-2"><path class="cls-1" d="M2.56,11.45c-.19,.27-1.12,1.65-1.12,2.3,0,.75,.61,1.35,1.35,1.35s1.35-.61,1.35-1.35c0-.65-.93-2.03-1.12-2.3-.11-.15-.36-.15-.47,0Zm.23,3.08c-.43,0-.79-.35-.79-.79,0-.29,.41-1.03,.79-1.62,.38,.59,.79,1.34,.79,1.62,0,.43-.35,.79-.79,.79Zm6.36-3.08c-.19,.27-1.12,1.65-1.12,2.3,0,.75,.61,1.35,1.35,1.35s1.35-.61,1.35-1.35c0-.65-.93-2.03-1.12-2.3-.11-.15-.36-.15-.47,0Zm.23,3.08c-.43,0-.79-.35-.79-.79,0-.29,.41-1.03,.79-1.62,.38,.59,.79,1.34,.79,1.62,0,.43-.35,.79-.79,.79Zm6.36-3.08c-.19,.27-1.12,1.65-1.12,2.3,0,.75,.61,1.35,1.35,1.35s1.35-.61,1.35-1.35c0-.65-.93-2.03-1.12-2.3-.11-.15-.36-.15-.47,0Zm.23,3.08c-.43,0-.79-.35-.79-.79,0-.29,.41-1.03,.79-1.62,.38,.59,.79,1.34,.79,1.62,0,.43-.35,.79-.79,.79Zm-.74-12.04c-.43,0-.85,.08-1.26,.23-.79-1.67-2.46-2.73-4.32-2.73-2.01,0-3.79,1.24-4.48,3.11-1.07,.07-2.03,.66-2.58,1.59-.05,0-.11,0-.16,0-1.34,0-2.44,1.09-2.44,2.44s1.09,2.44,2.44,2.44h2.79c-.12,.28-.18,.5-.18,.67,0,.75,.61,1.35,1.35,1.35s1.35-.61,1.35-1.35c0-.17-.06-.39-.18-.67h4.24c-.12,.28-.18,.5-.18,.67,0,.75,.61,1.35,1.35,1.35s1.35-.61,1.35-1.35c0-.17-.06-.39-.18-.67h1.06c1.95,0,3.54-1.59,3.54-3.54s-1.59-3.54-3.54-3.54ZM7.19,10.24c0,.43-.35,.79-.79,.79s-.79-.35-.79-.79c0-.06,.03-.24,.24-.67h1.1c.21,.43,.24,.61,.24,.67Zm6.59,0c0,.43-.35,.79-.79,.79s-.79-.35-.79-.79c0-.06,.03-.24,.24-.67h1.1c.21,.43,.24,.61,.24,.67Zm1.45-1.24H2.44c-1.03,0-1.87-.84-1.87-1.87s.8-1.82,1.79-1.86c-.12,.5-.06,.99-.05,1.01,.02,.14,.14,.24,.28,.24,.01,0,.03,0,.04,0,.16-.02,.26-.17,.24-.32,0,0-.08-.63,.14-1.07h0c.4-.79,1.15-1.32,2-1.44-.2,1.13,.37,1.86,.4,1.89,.06,.07,.14,.11,.22,.11,.06,0,.13-.02,.18-.06,.12-.1,.14-.28,.04-.4,0,0-.55-.69-.2-1.75h0c.57-1.74,2.18-2.91,4.01-2.91,1.73,0,3.26,1.04,3.91,2.64,.03,.07,.09,.13,.16,.16s.16,.02,.23,0c.41-.2,.84-.29,1.28-.29,1.64,0,2.97,1.33,2.97,2.97s-1.33,2.97-2.97,2.97Zm2.39-2.97c0,.16-.13,.28-.28,.28s-.28-.13-.28-.28c0-1.01-.82-1.82-1.82-1.82-.16,0-.28-.13-.28-.28s.13-.28,.28-.28c1.32,0,2.39,1.07,2.39,2.39Z"/></g></svg>