<?xml version="1.0" encoding="UTF-8"?><svg id="Layer_2" xmlns="http://www.w3.org/2000/svg" viewBox="0 0 19.46 16.63"><defs><style>.cls-1{fill:#fff;}</style></defs><g id="Layer_1-2"><path class="cls-1" d="M17.6,4.54s0-.08,0-.12c0-1.7-1.38-3.08-3.08-3.08-.61,0-1.18,.17-1.68,.5-.9-1.16-2.28-1.85-3.75-1.85-2.05,0-3.86,1.32-4.5,3.24-.36-.13-.73-.2-1.11-.2C1.71,3.04,.27,4.49,.27,6.26s1.44,3.22,3.22,3.22h1.61l-.41,.51c-.07,.09-.08,.2-.03,.3,.05,.1,.15,.16,.26,.16h2.07l-2.62,3.29c-.09,.11-.08,.27,.01,.37,.06,.06,.13,.09,.21,.09,.05,0,.11-.02,.16-.05l7.1-4.68h5.1c1.39,0,2.51-1.13,2.51-2.51,0-1.16-.77-2.14-1.86-2.42ZM5.92,12.7l1.88-2.35c.07-.09,.08-.2,.03-.3-.05-.1-.15-.16-.26-.16h-2.07l2.58-3.24h2.38l-1.89,2.37c-.07,.09-.08,.2-.03,.3,.05,.1,.15,.16,.26,.16h2.02l-4.89,3.22Zm11.03-3.79h-7.56l1.89-2.37c.07-.09,.08-.2,.03-.3-.05-.1-.15-.16-.26-.16h-3.11c-.09,0-.17,.04-.22,.11l-2.18,2.73H3.49c-1.46,0-2.65-1.19-2.65-2.65s1.19-2.65,2.65-2.65c.33,0,.66,.07,.97,.19-.18,1.17,.11,2.04,.12,2.08,.04,.12,.15,.19,.27,.19,.03,0,.06,0,.09-.01,.15-.05,.23-.21,.18-.36,0,0-.28-.87-.06-2.01,.48-1.84,2.14-3.12,4.04-3.12,1.38,0,2.67,.69,3.45,1.83,.04,.07,.11,.11,.19,.12,.08,.01,.16,0,.22-.06,.45-.36,.99-.55,1.57-.55,1.38,0,2.51,1.12,2.51,2.51,0,.09,0,.19-.02,.31-.02,.15,.09,.29,.24,.32,.95,.15,1.64,.95,1.64,1.92,0,1.07-.87,1.94-1.94,1.94Zm-1.64,3.34c-.04-.12-.15-.2-.27-.2h-1.31l1.08-1.35c.07-.09,.08-.2,.03-.3-.05-.1-.15-.16-.26-.16h-1.99c-.09,0-.17,.04-.22,.11l-1.95,2.44c-.07,.09-.08,.2-.03,.3,.05,.1,.15,.16,.26,.16h1.12l-1.55,1.94c-.09,.11-.08,.27,.01,.37,.06,.06,.13,.09,.21,.09,.05,0,.11-.02,.16-.05l4.6-3.03c.11-.07,.15-.2,.12-.32Zm-3.53,1.89l.8-1c.07-.09,.08-.2,.03-.3s-.15-.16-.26-.16h-1.12l1.49-1.87h1.26l-1.08,1.35c-.07,.09-.08,.2-.03,.3,.05,.1,.15,.16,.26,.16h.95l-2.31,1.52Zm-10.54-.97l-.74,.93c-.06,.07-.14,.11-.22,.11-.06,0-.12-.02-.18-.06-.12-.1-.14-.28-.04-.4l.74-.93c.1-.12,.28-.14,.4-.04,.12,.1,.14,.28,.04,.4Zm.3-1.28l1.39-1.74c.1-.12,.28-.14,.4-.04,.12,.1,.14,.28,.04,.4l-1.39,1.74c-.06,.07-.14,.11-.22,.11-.06,0-.12-.02-.18-.06-.12-.1-.14-.28-.04-.4Zm.44,3.53l-.89,1.11c-.06,.07-.14,.11-.22,.11-.06,0-.12-.02-.18-.06-.12-.1-.14-.28-.05-.4l.89-1.11c.1-.12,.28-.14,.4-.04,.12,.1,.14,.28,.04,.4Zm1.32-1.65l-.63,.78c-.06,.07-.14,.11-.22,.11-.06,0-.12-.02-.18-.06-.12-.1-.14-.28-.04-.4l.63-.78c.1-.12,.28-.14,.4-.04,.12,.1,.14,.28,.04,.4Zm.31-.84c-.12-.1-.14-.28-.04-.4l1.2-1.5c.1-.12,.28-.14,.4-.04,.12,.1,.14,.28,.04,.4l-1.2,1.5c-.06,.07-.14,.11-.22,.11-.06,0-.12-.02-.18-.06Zm1.2,2.13l-1.18,1.47c-.06,.07-.14,.11-.22,.11-.06,0-.12-.02-.18-.06-.12-.1-.14-.28-.05-.4l1.18-1.47c.1-.12,.28-.14,.4-.04,.12,.1,.14,.28,.04,.4Zm2.94-.51l-1.58,1.98c-.06,.07-.14,.11-.22,.11-.06,0-.12-.02-.18-.06-.12-.1-.14-.28-.04-.4l1.58-1.98c.1-.12,.28-.14,.4-.04,.12,.1,.14,.28,.04,.4Zm.6-.92c-.06,0-.12-.02-.18-.06-.12-.1-.14-.28-.04-.4l1.33-1.67c.1-.12,.28-.14,.4-.04s.14,.28,.04,.4l-1.33,1.67c-.06,.07-.14,.11-.22,.11Zm2.19,.6l-1.84,2.3c-.06,.07-.14,.11-.22,.11-.06,0-.12-.02-.18-.06-.12-.1-.14-.28-.04-.4l1.84-2.3c.1-.12,.28-.14,.4-.04,.12,.1,.14,.28,.04,.4Zm.99,1.94l-.29,.36c-.06,.07-.14,.11-.22,.11-.06,0-.12-.02-.18-.06-.12-.1-.14-.28-.05-.4l.29-.36c.1-.12,.28-.14,.4-.05s.14,.28,.04,.4Zm3.17-4.88l.9-1.13c.1-.12,.28-.14,.4-.04,.12,.1,.14,.28,.05,.4l-.9,1.13c-.06,.07-.14,.11-.22,.11-.06,0-.12-.02-.18-.06-.12-.1-.14-.28-.04-.4Zm.18,3.87l-1.1,1.38c-.06,.07-.14,.11-.22,.11-.06,0-.12-.02-.18-.06-.12-.1-.14-.28-.04-.4l1.1-1.38c.1-.12,.28-.14,.4-.04,.12,.1,.14,.28,.04,.4Zm.91-1.14l-.31,.38c-.06,.07-.14,.11-.22,.11-.06,0-.12-.02-.18-.06-.12-.1-.14-.28-.04-.4l.31-.38c.1-.12,.28-.14,.4-.04,.12,.1,.14,.28,.04,.4Zm2.1-2.63l-1.35,1.69c-.06,.07-.14,.11-.22,.11-.06,0-.12-.02-.18-.06-.12-.1-.14-.28-.05-.4l1.35-1.69c.1-.12,.28-.14,.4-.04,.12,.1,.14,.28,.05,.4Z"/></g></svg>