<?xml version="1.0" encoding="UTF-8"?><svg id="Layer_2" xmlns="http://www.w3.org/2000/svg" viewBox="0 0 12.9 14.48"><defs><style>.cls-1{fill:#fff;}</style></defs><g id="Layer_2-2"><path class="cls-1" d="M10.57,12.21l.02-2.17,1.95,1.13,.36-.63-1.78-1.03-.17-.1,1.87-1.1-.72-.42-1.13,.67-.74,.44-1.16-.67,.67-.39,1.21-.7-1.21-.7-.66-.39,1.16-.67,1.87,1.1,.72-.42-1.87-1.1,1.95-1.13-.36-.63-1.95,1.13-.02-2.17-.72,.42,.02,2.17-1.16,.67V3.35l-1.21,.69-.68,.38v-1.34l1.89-1.07v-.84l-1.89,1.07V0h-.73V2.25l-1.89-1.07v.84l1.89,1.07v1.34l-.67-.38-1.21-.7v2.17l-1.17-.67v-1.14l.02-1.03-.72-.42-.02,2.17L.36,3.3,0,3.93l1.95,1.13L.08,6.16l.72,.42,1.87-1.1,.61,.35,.55,.32-.67,.39-1.21,.7,.37,.21,.84,.49,.66,.39-1.16,.67-1.87-1.1-.72,.42,1.87,1.1-1.95,1.13,.36,.63,1.95-1.13,.02,2.17,.72-.42-.02-2.17,1.16-.67v2.17l1.22-.7,.67-.38v1.34l-1.89,1.07v.84l1.89-1.07v2.25h.73v-2.25l1.89,1.07v-.84l-1.89-1.07v-1.34l.67,.38,1.21,.7v-2.17l1.17,.67-.02,2.17,.72,.42ZM3.97,7.56l-.56-.32,1.16-.67,.98,.57,.17,.1-1.16,.67-.6-.35Zm2.12,1.64l-1.16,.67v-1.33l.98-.57,.17-.1v1.33Zm0-2.59l-1.04-.6-.12-.07v-1.33l1.16,.67v1.33Zm.73-1.33l1.16-.67v1.33l-.98,.57-.17,.1v-1.33Zm1.16,4.59l-1.16-.67v-1.33l1.1,.63,.06,.03v1.33Zm.36-1.96l-1.16-.67,1.1-.63,.06-.03,.67,.39,.49,.28-1.16,.67Z"/></g></svg>