<?xml version="1.0" encoding="UTF-8"?><svg id="Layer_2" xmlns="http://www.w3.org/2000/svg" viewBox="0 0 18.89 15.06"><defs><style>.cls-1{fill:#fff;}</style></defs><g id="Layer_1-2"><path class="cls-1" d="M2.16,7.16c-.43,0-.79,.35-.79,.79s.35,.79,.79,.79h7.91c.43,0,.79-.35,.79-.79s-.35-.79-.79-.79H2.16Zm8.13,.79c0,.12-.1,.22-.22,.22H2.16c-.12,0-.22-.1-.22-.22s.1-.22,.22-.22h7.91c.12,0,.22,.1,.22,.22Zm2.01-.79c-.43,0-.79,.35-.79,.79s.35,.79,.79,.79h1.59c.43,0,.79-.35,.79-.79s-.35-.79-.79-.79h-1.59Zm1.81,.79c0,.12-.1,.22-.22,.22h-1.59c-.12,0-.22-.1-.22-.22s.1-.22,.22-.22h1.59c.12,0,.22,.1,.22,.22Zm1.84-.79c-.43,0-.79,.35-.79,.79s.35,.79,.79,.79h.55c.43,0,.79-.35,.79-.79s-.35-.79-.79-.79h-.55Zm.76,.79c0,.12-.1,.22-.22,.22h-.55c-.12,0-.22-.1-.22-.22s.1-.22,.22-.22h.55c.12,0,.22,.1,.22,.22Zm-5.8,3.63H5.61c-.43,0-.79,.35-.79,.79s.35,.79,.79,.79h5.31c.43,0,.79-.35,.79-.79s-.35-.79-.79-.79Zm0,1H5.61c-.12,0-.22-.1-.22-.22s.1-.22,.22-.22h5.31c.12,0,.22,.1,.22,.22s-.1,.22-.22,.22Zm-7.4-1H.79c-.43,0-.79,.35-.79,.79s.35,.79,.79,.79H3.52c.43,0,.79-.35,.79-.79s-.35-.79-.79-.79Zm0,1H.79c-.12,0-.22-.1-.22-.22s.1-.22,.22-.22H3.52c.12,0,.22,.1,.22,.22s-.1,.22-.22,.22ZM.79,6.61H13.58c1.82,0,3.3-1.48,3.3-3.3s-1.48-3.3-3.3-3.3-3.3,1.48-3.3,3.3c0,.43,.35,.79,.79,.79s.79-.35,.79-.79c0-.95,.78-1.73,1.73-1.73s1.73,.78,1.73,1.73-.78,1.73-1.73,1.73H.79c-.43,0-.79,.35-.79,.79s.35,.79,.79,.79Zm0-1H13.58c1.27,0,2.3-1.03,2.3-2.3s-1.03-2.3-2.3-2.3-2.3,1.03-2.3,2.3c0,.12-.1,.22-.22,.22s-.22-.1-.22-.22c0-1.51,1.23-2.73,2.73-2.73s2.73,1.23,2.73,2.73-1.23,2.73-2.73,2.73H.79c-.12,0-.22-.1-.22-.22s.1-.22,.22-.22Zm15.22,3.68H5.5c-.43,0-.79,.35-.79,.79s.35,.79,.79,.79h10.51c.72,0,1.31,.59,1.31,1.31s-.59,1.31-1.31,1.31-1.31-.59-1.31-1.31c0-.43-.35-.79-.79-.79s-.79,.35-.79,.79c0,1.59,1.29,2.88,2.88,2.88s2.88-1.29,2.88-2.88-1.29-2.88-2.88-2.88Zm0,5.2c-1.28,0-2.32-1.04-2.32-2.32,0-.12,.1-.22,.22-.22s.22,.1,.22,.22c0,1.04,.84,1.88,1.88,1.88s1.88-.84,1.88-1.88-.84-1.88-1.88-1.88H5.5c-.12,0-.22-.1-.22-.22s.1-.22,.22-.22h10.51c1.28,0,2.32,1.04,2.32,2.32s-1.04,2.32-2.32,2.32Z"/></g></svg>