<?xml version="1.0" encoding="UTF-8"?><svg id="Layer_2" xmlns="http://www.w3.org/2000/svg" viewBox="0 0 1769.74 1032.5"><defs><style>.cls-1{fill:#f69594;}.cls-2{fill:#fff;}</style></defs><g id="Layer_2-2"><g><g><circle class="cls-1" cx="51.98" cy="101.2" r="21.44"/><circle class="cls-1" cx="21.45" cy="118.83" r="21.44" transform="translate(-99.14 112.6) rotate(-76.81)"/><circle class="cls-1" cx="21.45" cy="154.09" r="21.44" transform="translate(-134.12 153.08) rotate(-81.71)"/><circle class="cls-1" cx="51.98" cy="171.71" r="21.44" transform="translate(-73.44 43.42) rotate(-27.51)"/><circle class="cls-1" cx="82.51" cy="154.09" r="21.44" transform="translate(-77.01 225.52) rotate(-85.95)"/><circle class="cls-1" cx="82.51" cy="118.83" r="21.44" transform="translate(-53.28 168.71) rotate(-75.39)"/></g><circle class="cls-2" cx="51.98" cy="136.46" r="22.58" transform="translate(-45.12 27.4) rotate(-20.83)"/></g><g><g><circle class="cls-1" cx="180.05" cy="437.85" r="21.44"/><circle class="cls-1" cx="149.51" cy="455.48" r="21.44" transform="translate(-328.06 497.13) rotate(-76.81)"/><circle class="cls-1" cx="149.51" cy="490.74" r="21.44" transform="translate(-357.66 567.89) rotate(-81.71)"/><circle class="cls-1" cx="180.05" cy="508.37" r="21.44" transform="translate(-214.45 140.64) rotate(-27.51)"/><circle class="cls-1" cx="210.58" cy="490.74" r="21.44" transform="translate(-293.79 666.18) rotate(-85.95)"/><circle class="cls-1" cx="210.58" cy="455.48" r="21.44" transform="translate(-283.28 544.39) rotate(-75.39)"/></g><circle class="cls-2" cx="180.05" cy="473.11" r="22.58" transform="translate(-156.45 94.93) rotate(-20.83)"/></g><g><g><circle class="cls-1" cx="199.25" cy="940.54" r="21.44"/><circle class="cls-1" cx="168.72" cy="958.17" r="21.44" transform="translate(-802.67 903.82) rotate(-76.81)"/><circle class="cls-1" cx="168.72" cy="993.43" r="21.44" transform="translate(-838.66 1017.06) rotate(-81.71)"/><circle class="cls-1" cx="199.25" cy="1011.05" r="21.44" transform="translate(-444.47 206.35) rotate(-27.51)"/><circle class="cls-1" cx="229.79" cy="993.43" r="21.44" transform="translate(-777.38 1152.56) rotate(-85.95)"/><circle class="cls-1" cx="229.79" cy="958.17" r="21.44" transform="translate(-755.36 938.89) rotate(-75.39)"/></g><circle class="cls-2" cx="199.25" cy="975.8" r="22.58" transform="translate(-333.93 134.61) rotate(-20.83)"/></g><g><g><circle class="cls-1" cx="557.6" cy="36.2" r="21.44"/><circle class="cls-1" cx="527.06" cy="53.83" r="21.44" transform="translate(354.4 554.71) rotate(-76.81)"/><circle class="cls-1" cx="527.06" cy="89.09" r="21.44" transform="translate(362.87 597.78) rotate(-81.71)"/><circle class="cls-1" cx="557.6" cy="106.71" r="21.44" transform="translate(13.75 269.62) rotate(-27.51)"/><circle class="cls-1" cx="588.13" cy="89.09" r="21.44" transform="translate(457.78 669.47) rotate(-85.95)"/><circle class="cls-1" cx="588.13" cy="53.83" r="21.44" transform="translate(387.73 609.38) rotate(-75.39)"/></g><circle class="cls-2" cx="557.6" cy="71.46" r="22.58" transform="translate(11.03 202.93) rotate(-20.83)"/></g><g><g><circle class="cls-1" cx="632.05" cy="633.7" r="21.44"/><circle class="cls-1" cx="601.51" cy="651.33" r="21.44" transform="translate(-169.88 1088.37) rotate(-76.81)"/><circle class="cls-1" cx="601.51" cy="686.59" r="21.44" transform="translate(-164.67 1182.75) rotate(-81.71)"/><circle class="cls-1" cx="632.05" cy="704.21" r="21.44" transform="translate(-253.81 371.56) rotate(-27.51)"/><circle class="cls-1" cx="662.58" cy="686.59" r="21.44" transform="translate(-69.04 1299.08) rotate(-85.95)"/><circle class="cls-1" cx="662.58" cy="651.33" r="21.44" transform="translate(-134.79 1128.24) rotate(-75.39)"/></g><circle class="cls-2" cx="632.05" cy="668.96" r="22.58" transform="translate(-196.55 268.45) rotate(-20.83)"/></g><g><g><circle class="cls-1" cx="1073.59" cy="940.54" r="21.44"/><circle class="cls-1" cx="1043.05" cy="958.17" r="21.44" transform="translate(-127.82 1755.1) rotate(-76.81)"/><circle class="cls-1" cx="1043.05" cy="993.43" r="21.44" transform="translate(-90.46 1882.25) rotate(-81.71)"/><circle class="cls-1" cx="1073.59" cy="1011.05" r="21.44" transform="translate(-345.61 610.2) rotate(-27.51)"/><circle class="cls-1" cx="1104.12" cy="993.43" r="21.44" transform="translate(35.28 2024.71) rotate(-85.95)"/><circle class="cls-1" cx="1104.12" cy="958.17" r="21.44" transform="translate(-101.52 1784.97) rotate(-75.39)"/></g><circle class="cls-2" cx="1073.59" cy="975.8" r="22.58" transform="translate(-276.8 445.49) rotate(-20.83)"/></g><g><g><circle class="cls-1" cx="1073.59" cy="368.5" r="21.44"/><circle class="cls-1" cx="1043.05" cy="386.12" r="21.44" transform="translate(429.13 1313.57) rotate(-76.81)"/><circle class="cls-1" cx="1043.05" cy="421.38" r="21.44" transform="translate(475.6 1392.73) rotate(-81.71)"/><circle class="cls-1" cx="1073.59" cy="439.01" r="21.44" transform="translate(-81.39 545.52) rotate(-27.51)"/><circle class="cls-1" cx="1104.12" cy="421.38" r="21.44" transform="translate(605.9 1493.03) rotate(-85.95)"/><circle class="cls-1" cx="1104.12" cy="386.12" r="21.44" transform="translate(452.04 1357.19) rotate(-75.39)"/></g><circle class="cls-2" cx="1073.59" cy="403.75" r="22.58" transform="translate(-73.4 408.11) rotate(-20.83)"/></g><g><g><circle class="cls-1" cx="1406.93" cy="21.44" r="21.44"/><circle class="cls-1" cx="1376.4" cy="39.07" r="21.44" transform="translate(1024.32 1370.25) rotate(-76.81)"/><circle class="cls-1" cx="1376.4" cy="74.33" r="21.44" transform="translate(1104.28 1425.6) rotate(-81.71)"/><circle class="cls-1" cx="1406.93" cy="91.96" r="21.44" transform="translate(116.6 660.25) rotate(-27.51)"/><circle class="cls-1" cx="1437.46" cy="74.33" r="21.44" transform="translate(1261.91 1502.97) rotate(-85.95)"/><circle class="cls-1" cx="1437.46" cy="39.07" r="21.44" transform="translate(1037.15 1420.22) rotate(-75.39)"/></g><circle class="cls-2" cx="1406.93" cy="56.7" r="22.58" transform="translate(71.78 503.95) rotate(-20.83)"/></g><g><g><circle class="cls-1" cx="1717.76" cy="398.9" r="21.44"/><circle class="cls-1" cx="1687.23" cy="416.53" r="21.44" transform="translate(896.72 1964.22) rotate(-76.81)"/><circle class="cls-1" cx="1687.23" cy="451.79" r="21.44" transform="translate(996.75 2056.19) rotate(-81.71)"/><circle class="cls-1" cx="1717.76" cy="469.42" r="21.44" transform="translate(-22.6 846.5) rotate(-27.51)"/><circle class="cls-1" cx="1748.3" cy="451.79" r="21.44" transform="translate(1174.29 2163.86) rotate(-85.95)"/><circle class="cls-1" cx="1748.3" cy="416.53" r="21.44" transform="translate(904.33 2003.28) rotate(-75.39)"/></g><circle class="cls-2" cx="1717.76" cy="434.16" r="22.58" transform="translate(-42.12 639.14) rotate(-20.83)"/></g><g><g><circle class="cls-1" cx="1532.29" cy="744.26" r="21.44"/><circle class="cls-1" cx="1501.75" cy="761.89" r="21.44" transform="translate(417.32 2050.2) rotate(-76.81)"/><circle class="cls-1" cx="1501.75" cy="797.15" r="21.44" transform="translate(496.29 2168.19) rotate(-81.71)"/><circle class="cls-1" cx="1532.29" cy="814.78" r="21.44" transform="translate(-203.09 799.88) rotate(-27.51)"/><circle class="cls-1" cx="1562.82" cy="797.15" r="21.44" transform="translate(657.41 2299.84) rotate(-85.95)"/><circle class="cls-1" cx="1562.82" cy="761.89" r="21.44" transform="translate(431.44 2082.06) rotate(-75.39)"/></g><circle class="cls-2" cx="1532.29" cy="779.52" r="22.58" transform="translate(-177.04 595.76) rotate(-20.83)"/></g></g></svg>