<?xml version="1.0" encoding="UTF-8"?><svg id="Layer_2" xmlns="http://www.w3.org/2000/svg" viewBox="0 0 251.03 360"><defs><style>.cls-1{fill:#fff;}</style></defs><g id="Layer_3"><g id="Artwork_65"><path class="cls-1" d="M80.43,247.85c10.55,17.02,17.33,35.08,20.25,56,5.9-29.45,25.44-51.8,32.91-79.23,2.26-8.3,2.49-17.03,.08-25.26-.55-1.88-5.7-2.93-8.88-3.4-9.3-1.38-15.15-7.45-20.59-14.22-.46-.57-.6-1.98-.22-2.49,.49-.65,1.72-1.17,2.54-1.06,10.11,1.32,17.46,7.01,23.32,15,.67,.92,1.19,2.53,2.74,1.83,1.53-.69,.19-2,.22-3.02,.31-10.73-10.11-13.58-15.02-20.47-3.66-5.15-4.61-11.3-6-17.25-.53-2.29,1.32-2.04,2.64-1.7,5.87,1.5,9.66,5.3,11.67,10.93,5.54,15.55,10.75,31.17,11.11,47.92,0,.4,.15,.8,.35,1.81,2.53-11.71,5.13-22.73,5.6-34.2,.6-14.67,1.77-29.32-1.42-43.86-.71-3.25-1.8-4.84-5.75-4.34-13.92,1.78-23.27-6.36-31.98-15.57-.69-.73-1.33-1.57-1.77-2.46-.98-1.96-4.48-3.7-3.09-5.48,1.88-2.43,5.65-2.27,8.63-1.29,9.86,3.24,17.43,10.31,25.89,15.88,1.41,.93,3.04,2.63,4.6,1.56,1.51-1.04,.17-3.02-.28-4.44-2.55-7.98-5.21-15.92-7.93-23.85-.91-2.64-2.9-3.81-5.76-3.85-14.39-.16-29.21-14.35-26.92-26.82,.9-4.91-.98-5.6-4.15-7.29-10.95-5.82-21.29-23.39-19.93-33.5,.56-4.19,2.96-7.17,6.6-9.22,14.75-8.29,20.28-7.23,31.06,5.93,1.75,2.14,3.57,4.23,5.36,6.34,.96-2.6,2.3-5.13,2.81-7.82C122.23,2.43,135.13,1.31,148.21,.07c11.06-1.05,28.07,10.79,30.72,21.75,.29,1.2,.21,2.41-.89,3.22-4.95,3.68-7.87,8.96-11.11,14-.19,.29-.25,.67-.37,1.01,.36-.07,.74-.08,1.07-.21,8.34-3.43,16.63-6.72,25.86-3,6.14,2.47,9.31,8.27,7.84,14.75-.91,4-1.64,8.03-2.42,12.06-1.76,9.09-13.16,15.94-24.55,14.44-6.13-.81-12.19-2.15-18.28-3.27-1.01-.18-1.97-.32-2.58,.71-4.7,7.99-11.98,12.49-20.55,15.25-1.75,.56-2.11,1.43-1.43,3.22,4.19,11.02,8.96,21.86,10.7,33.66,.05,.37,.38,.69,.58,1.04,.32-.41,.76-.78,.94-1.24,3.7-9.6,5.58-19.97,12.21-28.3,2.92-3.67,7.05-8.4,11.03-6.38,3.09,1.57,.62,7.74-.91,11.52-3.35,8.25-6.6,15.99-16.45,19.78-6.73,2.59-5.43,10.7-4.68,17.11,.12,1.03,.46,2.03,.7,3.04,.57-.8,1.08-1.65,1.72-2.4,4.61-5.42,9.07-10.97,13.93-16.17,3.57-3.83,16.66-3.66,22.56,.12,2.49,1.6,3.49,1.24,5.06-1.31,3.36-5.48,5.55-9.89,.53-16.35-5.42-6.98-1.99-19.54,5.2-25.05,1.51-1.15,2.22,.05,2.9,1.23,6.16,10.67,2.96,20.94-1.32,31.16-.25,.61-.47,1.24-.99,2.61,4.3-5.55,7.93-10.62,11.96-15.34,7.77-9.09,17.54-14.5,29.71-14.89,1.29-.04,3.04-.25,3.67,1.34,.65,1.64-.66,2.74-1.69,3.79-5.08,5.17-11.57,7.4-18.44,6.68-7.89-.82-11.92,3.37-15.45,9.39,7.44-2,14.78-4.29,22.52-3.48,2.95,.31,5.88,1.04,8.74,1.84,1.51,.42,3.57,.92,3.66,2.83,.09,1.84-1.82,2.67-3.25,3.37-9.36,4.61-18.65,4.38-27.63-.97-3.08-1.84-5.48-1.67-7.79,1.04-2.16,2.54-4.06,5.43-6.62,7.47-5.86,4.66-5.18,9.16-.44,13.95,.16,.16,.72,.24,.74,.2,2.52-5.69,2.26-13.51,9.36-15.88,6.45-2.15,12.22,2.79,18.46,3.98,16.45,3.14,25.42,18.14,19.44,31.61-1.53,3.44-4.05,5.97-7.07,8.1-.33,.24-.6,.57-.89,.85,.4,.19,.79,.47,1.21,.55,13.49,2.64,19.05,13.18,13.49,25.63-6.78,15.2-21.1,23.63-33.88,19.85-1.79-.53-3.69-1.26-5.09-2.43-2.64-2.2-3.25-1.3-3.78,1.59-2.43,13.26-14.85,17.67-25.31,9.03-2.99-2.47-6.12-4.86-8.72-7.72-3.6-3.95-7.73-5.08-12.92-4.56-6.69,.67-8.72-2.03-6.69-8.56,2.08-6.68,6.41-11.99,11.05-17.06,.25-.27,.45-1.04,.38-1.08-6.96-4.12-12.12-10.15-17.35-16.66-.18,12.25-1.23,24.06-3.42,35.75-4.78,25.45-14.36,49.03-27.59,71.2-.21,.36-.29,.8-.42,1.2,.31-.08,.7-.07,.93-.25,11.95-9.83,26.57-13.85,40.79-18.75,1.5-.52,2.46-1.46,3.03-2.96,3.34-8.73,14.74-15.21,23.99-13.65,.42,.07,1.05,.45,1.13,.79,.4,1.78-.34,3.25-1.67,4.38-7.14,6.07-15.64,9.75-24.16,13.29-4.76,1.98-9.81,3.23-16.04,5.24,11.6,2.21,21.93,4.11,32.22,6.17,3.92,.78,8.16,.66,11.45,3.48,.42,.36,.9,1.18,.75,1.54-.23,.56-.97,1.29-1.5,1.29-13.69-.01-27.49,.94-40.64-4.16-1.98-.77-3.9-1.89-5.58-3.19-3.85-2.98-7.18-1.46-10.52,.82,.24,.28,.43,.72,.74,.83,10.23,3.82,20.25,7.98,28.32,15.7,1.05,1.01,1.73,2.07,.95,3.44-.75,1.32-1.93,.59-2.95,.36-10.63-2.39-20.95-5.18-26.74-15.9-1.38-2.55-3.85-2.66-6.65-.95-16.99,10.35-17.6,28.4-21.19,44.97-1.25,5.74-.89,11.68-.1,17.53,.05,.36,.18,.71,.27,1.07,.27-.28,.61-.51,.79-.84,8.13-14.46,17.08-28.26,32.06-36.69,3.75-2.11,7.9-3.56,11.98-5.01,1.94-.69,3.19,.47,2.8,2.59-3.13,17.21-18.49,31.05-35.77,31.2-4.05,.04-4.82,2.02-6.58,4.25-7.09,8.96-8.58,19.67-9.87,30.48-.12,.97,.11,2.55-1.64,2.21-1.55-.3-1.04-1.62-.81-2.59,8.78-38.47,4.31-74.85-17.1-108.56-.71-1.13-1.51-2.2-2.27-3.3-.13,1.39-.42,2.79-.35,4.17,.87,17.58-13.43,29.75-26.59,21.84-8.39-5.04-17.93-10.38-20.13-21.31-1.29-6.41,2.86-11.71,6.59-16.68,.35-.46,.71-.92,1.06-1.38-.53-.2-1.05-.46-1.6-.59-11-2.67-21.51-6.43-29.41-15.02-6.41-6.98-6.7-13.79-1.6-21.72,1.09-1.69,2.06-3.51,2.79-5.38,4.67-11.9,10.78-14.59,23.22-10.32,4.76,1.64,8.41,4.73,11.79,8.26,.63,.65,.91,.64,1.27-.24,3.15-7.5,8.52-13.45,13.82-19.4,2.55-2.86,6.46-4.01,9.9-2.72,5.05,1.9,9.99,2.3,15.34,2.41,7.87,.16,11.59,7.69,10.11,18.39-.61,4.41-1.88,8.56-4.24,12.34-.99,1.59-.56,2.17,1.24,2.11,10.74-.4,19.81,2.5,25.01,12.87,1.21,2.41,1.93,5.03,1.1,7.59-1.8,5.52,.08,11.21-1.08,16.7-2.43,11.46-13.07,17.26-24.68,13.5-2.8-.91-5.55-1.97-8.7-3.09"/></g></g></svg>