<?xml version="1.0" encoding="UTF-8"?><svg id="Layer_2" xmlns="http://www.w3.org/2000/svg" xmlns:xlink="http://www.w3.org/1999/xlink" viewBox="0 0 25 25"><defs><style>.cls-1{fill:none;}.cls-2{clip-path:url(#clippath);}.cls-3{fill:#f69a9b;}.cls-4{fill:#fff;}</style><clipPath id="clippath"><rect class="cls-1" width="25" height="25"/></clipPath></defs><g id="Layer_1-2"><g><rect class="cls-4" width="25" height="25"/><rect class="cls-1" width="25" height="25"/><g class="cls-2"><g><path class="cls-3" d="M-23.41,23.09s.06-.23,.19-.65c.13-.42,.34-1.03,.65-1.78,.31-.75,.73-1.65,1.31-2.63,.58-.97,1.33-2.04,2.33-3.03,.99-.99,2.29-1.89,3.84-2.39,.77-.25,1.6-.39,2.45-.4,.83-.02,1.65-.08,2.4-.43,.38-.16,.71-.41,1.03-.69,.29-.3,.57-.62,.79-1,.45-.74,.76-1.58,1.03-2.43,.54-1.71,.93-3.55,1.88-5.18,.47-.81,1.12-1.53,1.91-2.04C-2.8-.06-1.89-.34-.98-.47c.91-.14,1.82-.08,2.7-.13,.88-.04,1.75-.13,2.58-.35,.82-.22,1.59-.59,2.21-1.13,.61-.55,1.06-1.23,1.43-1.92,.73-1.4,1.29-2.79,1.95-4.01,1.27-2.46,2.72-4.28,3.77-5.5,.53-.6,.96-1.07,1.27-1.37,.3-.31,.46-.47,.46-.47l-.46,.48c-.3,.31-.73,.78-1.26,1.38-1.04,1.22-2.47,3.05-3.71,5.52-.64,1.22-1.19,2.61-1.91,4.03-.36,.71-.82,1.4-1.44,1.98-.63,.57-1.43,.95-2.27,1.18-.84,.24-1.72,.33-2.62,.38-.89,.06-1.79,0-2.67,.16C-1.83-.11-2.7,.18-3.45,.67c-.75,.49-1.36,1.18-1.81,1.96-.9,1.58-1.27,3.4-1.8,5.14-.26,.87-.57,1.74-1.04,2.53-.23,.4-.52,.75-.84,1.08-.34,.3-.71,.59-1.12,.77l-.31,.14-.32,.1c-.21,.08-.43,.12-.65,.15-.22,.05-.44,.07-.64,.07l-.63,.03c-.81,.02-1.6,.16-2.33,.4-1.47,.48-2.69,1.35-3.64,2.31-.96,.96-1.67,2-2.23,2.95-.56,.96-.96,1.84-1.25,2.57-.3,.74-.5,1.33-.62,1.74-.12,.41-.17,.62-.17,.62l-.56-.14Z"/><path class="cls-3" d="M-22.39,24.11s.06-.23,.19-.65c.13-.42,.34-1.03,.65-1.78,.31-.75,.73-1.65,1.31-2.63,.58-.97,1.33-2.04,2.33-3.03,.99-.99,2.29-1.89,3.84-2.38,.77-.25,1.6-.39,2.45-.4,.83-.02,1.65-.08,2.4-.43,.38-.16,.71-.41,1.03-.69,.29-.3,.57-.62,.79-1,.45-.74,.76-1.58,1.03-2.43,.54-1.71,.93-3.55,1.88-5.18,.47-.81,1.12-1.53,1.92-2.04C-1.78,.96-.87,.68,.04,.55c.91-.14,1.82-.08,2.7-.13,.88-.04,1.75-.13,2.58-.35,.82-.22,1.6-.59,2.21-1.13,.61-.55,1.06-1.23,1.43-1.92,.73-1.4,1.29-2.79,1.95-4.01,1.27-2.46,2.72-4.28,3.77-5.5,.54-.6,.96-1.07,1.27-1.37,.3-.31,.46-.47,.46-.47,0,0-.16,.17-.46,.48-.3,.31-.73,.78-1.26,1.38-1.04,1.22-2.47,3.05-3.71,5.52-.64,1.22-1.19,2.61-1.91,4.03-.36,.7-.82,1.4-1.44,1.98C7-.38,6.2,0,5.36,.24c-.84,.23-1.72,.33-2.62,.38-.89,.06-1.79,0-2.67,.16-.88,.13-1.75,.42-2.5,.91-.75,.49-1.36,1.18-1.81,1.96-.9,1.58-1.27,3.4-1.8,5.14-.26,.87-.57,1.74-1.04,2.52-.23,.4-.52,.75-.84,1.08-.34,.3-.71,.59-1.12,.77l-.31,.14-.32,.1c-.21,.07-.43,.12-.65,.15-.22,.04-.44,.07-.64,.07l-.63,.03c-.81,.02-1.6,.16-2.33,.4-1.47,.48-2.69,1.35-3.64,2.31-.96,.96-1.67,1.99-2.22,2.95-.56,.96-.96,1.84-1.25,2.58-.3,.74-.5,1.33-.62,1.74-.12,.41-.17,.62-.17,.62l-.56-.14Z"/><path class="cls-3" d="M-21.38,25.13s.06-.23,.19-.65c.13-.42,.34-1.03,.65-1.78,.31-.75,.73-1.65,1.31-2.63,.58-.97,1.33-2.04,2.33-3.03,.99-.99,2.29-1.89,3.84-2.39,.77-.25,1.6-.39,2.45-.4,.83-.02,1.65-.08,2.4-.43,.38-.16,.71-.41,1.03-.69,.29-.3,.57-.62,.79-1,.45-.74,.76-1.58,1.03-2.43,.54-1.71,.93-3.55,1.88-5.18,.47-.81,1.12-1.53,1.92-2.04C-.76,1.98,.15,1.7,1.06,1.57c.91-.14,1.82-.08,2.7-.13,.88-.04,1.75-.13,2.58-.35,.82-.22,1.59-.59,2.21-1.13,.61-.55,1.06-1.23,1.43-1.92,.73-1.4,1.29-2.79,1.95-4.01,1.27-2.46,2.72-4.28,3.77-5.5,.54-.6,.96-1.07,1.27-1.37,.3-.31,.46-.47,.46-.47,0,0-.16,.17-.46,.48-.3,.31-.73,.78-1.26,1.38-1.04,1.22-2.47,3.05-3.71,5.52-.64,1.22-1.19,2.61-1.91,4.03-.36,.71-.82,1.4-1.44,1.98-.63,.57-1.43,.95-2.27,1.18-.84,.23-1.73,.33-2.62,.38-.89,.06-1.79,0-2.67,.15-.88,.14-1.75,.42-2.5,.91-.75,.49-1.36,1.18-1.81,1.96-.9,1.58-1.27,3.4-1.8,5.14-.26,.87-.57,1.74-1.04,2.52-.23,.4-.52,.75-.84,1.08-.34,.3-.71,.59-1.12,.77l-.31,.14-.32,.1c-.21,.08-.43,.12-.65,.15-.22,.05-.44,.07-.64,.07l-.63,.03c-.81,.02-1.6,.16-2.33,.4-1.47,.48-2.69,1.35-3.64,2.31-.96,.96-1.67,2-2.23,2.95-.56,.96-.96,1.84-1.25,2.58-.3,.74-.49,1.33-.62,1.74-.12,.41-.17,.62-.17,.62l-.56-.14Z"/><path class="cls-3" d="M-20.35,26.15s.06-.24,.19-.65c.13-.42,.34-1.03,.65-1.78,.31-.75,.73-1.65,1.31-2.63,.58-.97,1.33-2.04,2.33-3.03,.99-.99,2.29-1.89,3.84-2.39,.77-.25,1.6-.39,2.45-.4,.83-.02,1.65-.08,2.4-.43,.38-.16,.71-.41,1.03-.68,.29-.3,.57-.62,.79-1,.45-.74,.76-1.58,1.03-2.43,.54-1.71,.93-3.55,1.88-5.18,.47-.81,1.12-1.53,1.91-2.04,.79-.51,1.7-.79,2.61-.92,.91-.14,1.82-.08,2.7-.13,.88-.04,1.75-.13,2.58-.35,.82-.22,1.59-.59,2.21-1.13,.61-.55,1.06-1.23,1.43-1.92,.73-1.4,1.29-2.79,1.95-4.01,1.27-2.46,2.72-4.28,3.77-5.5,.54-.6,.96-1.07,1.27-1.37,.3-.31,.46-.47,.46-.47l-.46,.48c-.3,.31-.73,.78-1.26,1.38-1.04,1.22-2.47,3.05-3.71,5.52-.64,1.22-1.19,2.61-1.91,4.03-.36,.71-.82,1.4-1.44,1.98-.63,.57-1.43,.95-2.27,1.18-.84,.24-1.72,.33-2.62,.38-.89,.06-1.79,0-2.67,.15-.88,.14-1.75,.42-2.5,.91-.75,.49-1.36,1.18-1.81,1.96-.9,1.58-1.27,3.4-1.8,5.14-.26,.87-.57,1.74-1.04,2.52-.23,.4-.52,.75-.84,1.08-.34,.3-.71,.59-1.12,.77l-.31,.14-.32,.1c-.21,.08-.43,.12-.65,.15-.22,.05-.44,.07-.64,.07l-.63,.03c-.81,.02-1.6,.16-2.33,.4-1.47,.48-2.69,1.35-3.64,2.31-.96,.96-1.67,2-2.23,2.95-.56,.96-.96,1.84-1.25,2.58-.3,.74-.5,1.33-.62,1.74-.12,.41-.17,.62-.17,.62l-.56-.14Z"/><path class="cls-3" d="M-19.34,27.17s.06-.23,.19-.65c.13-.42,.34-1.03,.65-1.78,.31-.75,.73-1.65,1.31-2.63,.58-.97,1.33-2.04,2.33-3.03,.99-.99,2.29-1.89,3.84-2.39,.77-.25,1.6-.39,2.45-.4,.83-.02,1.65-.08,2.4-.43,.38-.16,.71-.41,1.03-.69,.29-.3,.57-.62,.79-1,.45-.74,.76-1.58,1.03-2.43,.54-1.71,.93-3.55,1.88-5.18,.47-.81,1.12-1.53,1.92-2.04,.79-.51,1.7-.79,2.61-.92,.91-.14,1.82-.08,2.7-.13,.88-.04,1.75-.13,2.58-.35,.82-.22,1.59-.59,2.21-1.13,.61-.55,1.06-1.23,1.43-1.92,.73-1.4,1.29-2.79,1.95-4.01,1.27-2.46,2.72-4.28,3.77-5.5,.53-.6,.96-1.07,1.27-1.37,.3-.31,.46-.47,.46-.47l-.46,.48c-.3,.31-.73,.78-1.26,1.38-1.04,1.22-2.47,3.05-3.71,5.52-.64,1.22-1.19,2.61-1.91,4.03-.36,.7-.82,1.4-1.44,1.98-.63,.57-1.43,.95-2.27,1.19-.84,.23-1.72,.33-2.62,.38-.89,.06-1.79,0-2.67,.15-.88,.13-1.75,.42-2.5,.91-.75,.49-1.36,1.18-1.81,1.96-.9,1.58-1.27,3.4-1.8,5.14-.26,.87-.57,1.74-1.04,2.52-.23,.4-.52,.75-.84,1.08-.34,.3-.71,.59-1.12,.77l-.31,.14-.32,.1c-.21,.08-.43,.12-.65,.15-.22,.05-.44,.07-.64,.07l-.63,.03c-.81,.02-1.6,.16-2.33,.4-1.47,.48-2.69,1.35-3.64,2.31-.96,.96-1.67,2-2.22,2.95-.56,.96-.96,1.84-1.25,2.58-.3,.74-.5,1.33-.62,1.74-.12,.41-.17,.62-.17,.62l-.56-.14Z"/><path class="cls-3" d="M-18.32,28.19s.06-.23,.19-.65c.13-.42,.34-1.03,.65-1.78,.31-.75,.73-1.65,1.31-2.63,.58-.97,1.33-2.04,2.33-3.03,.99-.99,2.29-1.89,3.84-2.39,.77-.25,1.6-.39,2.45-.4,.83-.02,1.65-.08,2.4-.43,.38-.16,.71-.41,1.03-.69,.29-.3,.57-.62,.79-1,.45-.74,.76-1.58,1.03-2.43,.54-1.71,.93-3.55,1.88-5.18,.47-.81,1.12-1.53,1.92-2.04,.79-.51,1.7-.79,2.61-.92,.91-.14,1.82-.08,2.7-.13,.88-.04,1.75-.13,2.58-.35,.82-.22,1.59-.59,2.21-1.13,.61-.55,1.06-1.23,1.43-1.92,.73-1.4,1.29-2.79,1.95-4.01,1.27-2.46,2.72-4.28,3.77-5.49,.53-.6,.96-1.07,1.27-1.37,.3-.31,.46-.47,.46-.47,0,0-.16,.17-.46,.48-.3,.31-.73,.78-1.26,1.38-1.04,1.22-2.47,3.05-3.71,5.52-.64,1.22-1.19,2.61-1.91,4.03-.36,.71-.82,1.4-1.44,1.98-.63,.57-1.43,.95-2.27,1.18-.84,.23-1.72,.33-2.62,.38-.89,.06-1.79,0-2.67,.16-.88,.13-1.75,.42-2.5,.91-.75,.49-1.36,1.18-1.81,1.96-.9,1.58-1.27,3.4-1.8,5.14-.26,.87-.57,1.74-1.04,2.52-.23,.4-.52,.76-.84,1.08-.34,.3-.71,.59-1.12,.77l-.31,.14-.32,.1c-.21,.07-.43,.12-.65,.15-.22,.05-.44,.07-.64,.07l-.63,.03c-.81,.02-1.6,.16-2.33,.4-1.47,.48-2.69,1.35-3.64,2.31-.96,.96-1.67,2-2.23,2.95-.56,.96-.96,1.84-1.25,2.57-.3,.74-.49,1.33-.62,1.74-.12,.41-.17,.62-.17,.62l-.56-.14Z"/><path class="cls-3" d="M-17.29,29.21s.06-.23,.19-.65c.13-.42,.34-1.03,.65-1.78,.31-.75,.73-1.65,1.31-2.63,.58-.98,1.33-2.04,2.33-3.03,.99-.99,2.29-1.89,3.84-2.39,.77-.25,1.6-.39,2.45-.4,.83-.02,1.65-.08,2.4-.43,.38-.16,.71-.41,1.03-.69,.29-.3,.57-.62,.79-1,.45-.74,.76-1.58,1.03-2.43,.54-1.71,.94-3.55,1.88-5.18,.47-.81,1.12-1.53,1.91-2.04,.79-.51,1.7-.79,2.61-.92,.91-.14,1.82-.08,2.7-.13,.88-.04,1.75-.13,2.58-.35,.82-.22,1.59-.59,2.21-1.13,.61-.55,1.06-1.23,1.43-1.92,.73-1.4,1.29-2.79,1.95-4.01,1.27-2.46,2.72-4.28,3.77-5.5,.54-.6,.96-1.07,1.27-1.37,.3-.31,.46-.47,.46-.47,0,0-.16,.17-.46,.48-.3,.31-.73,.78-1.26,1.38-1.04,1.22-2.47,3.05-3.71,5.52-.64,1.22-1.19,2.61-1.91,4.03-.36,.7-.82,1.4-1.44,1.98-.63,.57-1.43,.95-2.27,1.19-.84,.23-1.72,.33-2.62,.38-.89,.06-1.79,0-2.67,.16-.88,.13-1.75,.42-2.5,.91-.75,.49-1.36,1.18-1.81,1.96C-.04,10.33-.41,12.15-.94,13.89c-.26,.87-.57,1.74-1.04,2.52-.23,.4-.52,.75-.84,1.08-.34,.3-.71,.59-1.12,.77l-.31,.14-.32,.1c-.21,.07-.43,.12-.65,.15-.22,.05-.44,.07-.64,.07l-.63,.03c-.81,.02-1.6,.16-2.33,.4-1.47,.48-2.69,1.35-3.64,2.31-.96,.96-1.67,2-2.23,2.95-.56,.96-.96,1.84-1.25,2.57-.3,.74-.5,1.33-.62,1.74-.12,.41-.17,.62-.17,.62l-.56-.14Z"/><path class="cls-3" d="M-16.28,30.23s.06-.23,.19-.65c.13-.42,.34-1.03,.65-1.78,.31-.75,.73-1.65,1.31-2.63,.58-.97,1.33-2.04,2.33-3.03,.99-.99,2.29-1.89,3.84-2.39,.77-.25,1.6-.39,2.45-.4,.83-.02,1.65-.08,2.4-.43,.38-.16,.71-.41,1.03-.69,.29-.3,.57-.62,.79-1,.45-.74,.76-1.58,1.03-2.43,.54-1.71,.93-3.55,1.88-5.18,.47-.81,1.12-1.53,1.92-2.04,.79-.51,1.7-.79,2.61-.92,.91-.14,1.82-.08,2.7-.13,.88-.04,1.75-.13,2.58-.35,.82-.22,1.59-.59,2.21-1.13,.61-.55,1.06-1.23,1.43-1.92,.73-1.4,1.29-2.79,1.95-4.01,1.27-2.46,2.72-4.28,3.77-5.5,.54-.6,.96-1.07,1.27-1.37,.3-.31,.46-.47,.46-.47,0,0-.16,.17-.46,.48-.3,.31-.73,.78-1.26,1.38-1.04,1.23-2.47,3.05-3.71,5.52-.64,1.22-1.19,2.61-1.91,4.03-.36,.71-.82,1.4-1.44,1.98-.63,.57-1.43,.95-2.27,1.18-.84,.23-1.72,.33-2.62,.38-.89,.06-1.79,0-2.67,.15-.88,.13-1.75,.42-2.5,.91-.75,.49-1.36,1.18-1.81,1.96-.9,1.58-1.27,3.4-1.8,5.14-.27,.87-.57,1.74-1.04,2.52-.23,.4-.52,.75-.84,1.08-.34,.3-.71,.59-1.12,.77l-.31,.14-.32,.1c-.21,.07-.43,.12-.65,.15-.22,.05-.44,.07-.64,.07l-.63,.03c-.81,.02-1.6,.16-2.33,.4-1.47,.48-2.69,1.35-3.64,2.31-.96,.96-1.67,1.99-2.22,2.95-.56,.96-.96,1.84-1.25,2.58-.3,.74-.5,1.33-.62,1.74-.12,.41-.17,.62-.17,.62l-.56-.14Z"/><path class="cls-3" d="M-15.26,31.25s.06-.24,.19-.65c.13-.42,.34-1.03,.65-1.78,.31-.75,.73-1.65,1.31-2.63,.58-.97,1.33-2.04,2.33-3.03,.99-.99,2.29-1.89,3.84-2.39,.77-.25,1.6-.39,2.45-.4,.83-.02,1.65-.08,2.4-.43,.38-.16,.71-.41,1.03-.69,.29-.3,.57-.62,.79-1,.45-.74,.76-1.58,1.03-2.43,.54-1.71,.93-3.55,1.88-5.18,.47-.81,1.12-1.53,1.92-2.04,.79-.51,1.7-.79,2.61-.92,.91-.14,1.82-.08,2.7-.13,.88-.04,1.75-.13,2.58-.35,.82-.22,1.59-.59,2.21-1.13,.61-.55,1.06-1.23,1.43-1.92,.73-1.4,1.29-2.79,1.95-4.01,1.27-2.46,2.72-4.28,3.77-5.5,.54-.6,.96-1.07,1.27-1.37,.3-.31,.46-.47,.46-.47,0,0-.16,.17-.46,.48-.3,.31-.73,.78-1.26,1.38-1.04,1.22-2.47,3.05-3.71,5.52-.64,1.22-1.19,2.61-1.91,4.03-.36,.71-.82,1.4-1.44,1.98-.63,.57-1.43,.95-2.27,1.18-.84,.24-1.72,.33-2.62,.38-.89,.06-1.79,0-2.67,.15-.88,.14-1.75,.42-2.5,.91-.75,.49-1.36,1.18-1.81,1.96-.9,1.58-1.27,3.4-1.8,5.14-.26,.87-.57,1.74-1.04,2.52-.23,.4-.52,.75-.84,1.08-.34,.3-.71,.59-1.12,.77l-.31,.14-.32,.1c-.21,.08-.43,.12-.65,.15-.22,.05-.44,.07-.64,.07l-.63,.03c-.81,.02-1.6,.16-2.33,.4-1.47,.48-2.69,1.35-3.64,2.31-.96,.96-1.67,2-2.23,2.95-.56,.96-.96,1.84-1.25,2.58-.3,.74-.5,1.33-.62,1.74-.12,.41-.17,.62-.17,.62l-.56-.14Z"/><path class="cls-3" d="M-14.24,32.27s.06-.23,.19-.65c.13-.42,.34-1.03,.65-1.78,.31-.75,.73-1.65,1.31-2.63,.58-.97,1.33-2.04,2.33-3.03,.99-.99,2.29-1.89,3.84-2.38,.77-.25,1.6-.39,2.45-.4,.83-.02,1.65-.08,2.4-.43,.38-.16,.71-.41,1.03-.69,.29-.3,.57-.62,.79-1,.45-.74,.76-1.58,1.03-2.43,.54-1.71,.93-3.55,1.88-5.18,.47-.81,1.12-1.53,1.92-2.04,.79-.51,1.7-.79,2.61-.92,.91-.14,1.82-.08,2.7-.13,.88-.04,1.75-.13,2.58-.35,.82-.22,1.59-.59,2.21-1.13,.61-.55,1.06-1.23,1.43-1.92,.73-1.4,1.29-2.79,1.95-4.01,1.27-2.46,2.72-4.28,3.77-5.5,.53-.6,.96-1.07,1.27-1.37,.3-.31,.46-.47,.46-.47l-.46,.48c-.3,.31-.73,.78-1.26,1.38-1.04,1.22-2.47,3.05-3.71,5.52-.64,1.22-1.19,2.61-1.91,4.03-.36,.71-.82,1.4-1.44,1.98-.63,.57-1.43,.95-2.27,1.18-.84,.24-1.72,.33-2.62,.38-.89,.06-1.79,0-2.67,.16-.88,.13-1.75,.42-2.5,.91-.75,.49-1.36,1.18-1.81,1.96-.9,1.58-1.27,3.4-1.8,5.14-.26,.87-.57,1.74-1.04,2.52-.23,.4-.52,.76-.84,1.08-.34,.3-.71,.59-1.12,.77l-.31,.14-.32,.1c-.21,.08-.43,.12-.65,.15-.22,.05-.44,.07-.64,.07l-.63,.03c-.81,.02-1.6,.16-2.33,.4-1.47,.48-2.69,1.35-3.64,2.31-.96,.96-1.67,2-2.23,2.95-.56,.96-.96,1.84-1.25,2.58-.3,.74-.49,1.33-.62,1.74-.12,.41-.17,.62-.17,.62l-.56-.14Z"/><path class="cls-3" d="M-13.22,33.29s.06-.23,.19-.65c.13-.42,.34-1.03,.65-1.78,.31-.75,.73-1.65,1.31-2.63,.58-.97,1.33-2.04,2.33-3.03,.99-.99,2.29-1.89,3.84-2.39,.77-.25,1.6-.39,2.45-.4,.83-.02,1.65-.08,2.4-.43,.38-.16,.71-.41,1.03-.69,.29-.3,.57-.62,.79-1,.45-.74,.76-1.58,1.03-2.43,.54-1.71,.93-3.55,1.88-5.18,.47-.81,1.12-1.53,1.91-2.04,.79-.51,1.7-.79,2.61-.92,.91-.14,1.82-.08,2.7-.13,.88-.04,1.75-.13,2.58-.35,.82-.22,1.59-.59,2.21-1.13,.61-.55,1.06-1.23,1.43-1.92,.73-1.4,1.29-2.79,1.95-4.01,1.27-2.46,2.72-4.28,3.77-5.5,.53-.6,.96-1.07,1.27-1.37,.3-.31,.46-.47,.46-.47,0,0-.16,.17-.46,.48-.3,.31-.73,.78-1.26,1.38-1.04,1.22-2.47,3.05-3.71,5.52-.64,1.22-1.19,2.61-1.91,4.03-.36,.7-.82,1.4-1.44,1.98-.63,.57-1.43,.95-2.27,1.19-.84,.23-1.72,.33-2.62,.38-.89,.06-1.79,0-2.67,.15-.88,.14-1.75,.42-2.5,.91-.75,.49-1.36,1.18-1.81,1.96-.9,1.58-1.27,3.4-1.8,5.14-.26,.87-.57,1.74-1.04,2.52-.23,.4-.52,.75-.84,1.08-.34,.3-.71,.59-1.12,.77l-.31,.14-.32,.1c-.21,.08-.43,.12-.65,.15-.22,.05-.44,.07-.64,.07l-.63,.03c-.81,.02-1.6,.16-2.33,.4-1.47,.48-2.69,1.35-3.64,2.31-.96,.96-1.67,2-2.23,2.95-.56,.96-.96,1.84-1.25,2.58-.3,.74-.5,1.33-.62,1.74-.12,.41-.17,.62-.17,.62l-.56-.14Z"/><path class="cls-3" d="M-12.2,34.31s.06-.23,.19-.65c.13-.42,.34-1.03,.65-1.78,.31-.75,.73-1.65,1.31-2.63,.58-.97,1.33-2.04,2.33-3.03,.99-.99,2.29-1.89,3.84-2.39,.77-.25,1.6-.39,2.45-.4,.83-.02,1.65-.08,2.4-.43,.38-.16,.71-.41,1.03-.69,.29-.3,.57-.62,.79-1,.45-.74,.76-1.58,1.03-2.43,.54-1.71,.93-3.55,1.88-5.18,.47-.81,1.12-1.53,1.92-2.04,.79-.51,1.7-.79,2.61-.92,.91-.14,1.82-.08,2.7-.13,.88-.04,1.75-.13,2.58-.35,.82-.22,1.59-.59,2.21-1.13,.61-.55,1.06-1.23,1.43-1.92,.73-1.4,1.29-2.79,1.95-4.01,1.27-2.46,2.72-4.28,3.77-5.5,.53-.6,.96-1.07,1.27-1.37,.3-.31,.46-.47,.46-.47l-.46,.48c-.3,.31-.73,.78-1.26,1.38-1.04,1.22-2.47,3.05-3.71,5.52-.64,1.22-1.19,2.61-1.91,4.03-.36,.7-.82,1.4-1.44,1.98-.63,.57-1.43,.95-2.27,1.18-.84,.23-1.72,.33-2.62,.38-.89,.06-1.79,0-2.67,.16-.88,.13-1.75,.42-2.5,.91-.75,.49-1.36,1.18-1.81,1.96-.9,1.58-1.27,3.4-1.8,5.14-.26,.87-.57,1.74-1.04,2.52-.23,.4-.52,.76-.84,1.08-.34,.3-.71,.59-1.12,.77l-.31,.14-.32,.1c-.21,.07-.43,.12-.65,.15-.22,.05-.44,.07-.64,.07l-.63,.03c-.81,.02-1.6,.16-2.33,.4-1.47,.48-2.69,1.35-3.64,2.31-.96,.96-1.67,2-2.22,2.95-.56,.96-.96,1.84-1.25,2.57-.3,.74-.5,1.33-.62,1.74-.12,.41-.17,.62-.17,.62l-.56-.14Z"/><path class="cls-3" d="M-11.18,35.33s.06-.24,.19-.65c.13-.42,.34-1.03,.65-1.78,.31-.75,.73-1.65,1.31-2.63,.58-.98,1.33-2.04,2.33-3.03,.99-.99,2.29-1.89,3.84-2.39,.77-.25,1.6-.39,2.45-.4,.83-.02,1.65-.08,2.4-.43,.38-.16,.71-.41,1.03-.69,.29-.3,.57-.62,.79-1,.45-.74,.76-1.58,1.03-2.43,.54-1.71,.93-3.55,1.88-5.18,.47-.81,1.12-1.53,1.92-2.04,.79-.51,1.7-.79,2.61-.92,.91-.14,1.82-.08,2.7-.13,.88-.04,1.75-.13,2.58-.35,.82-.22,1.59-.59,2.21-1.13,.61-.55,1.06-1.23,1.43-1.92,.73-1.4,1.29-2.79,1.95-4.01C23.39,1.76,24.84-.06,25.89-1.27c.54-.6,.96-1.07,1.27-1.37,.3-.31,.46-.47,.46-.47l-.46,.48c-.3,.31-.73,.78-1.26,1.38-1.04,1.22-2.47,3.05-3.71,5.52-.64,1.22-1.19,2.61-1.91,4.03-.36,.7-.82,1.4-1.44,1.98-.63,.57-1.43,.95-2.27,1.19-.84,.23-1.72,.33-2.62,.38-.89,.06-1.79,0-2.67,.15-.88,.13-1.75,.42-2.5,.91-.75,.49-1.36,1.18-1.81,1.96-.9,1.58-1.27,3.4-1.8,5.14-.26,.87-.57,1.74-1.04,2.52-.23,.4-.52,.75-.84,1.08-.34,.3-.71,.59-1.12,.77l-.31,.14-.32,.1c-.21,.07-.43,.12-.65,.15-.22,.05-.44,.07-.64,.07l-.63,.03c-.81,.02-1.6,.16-2.33,.4-1.47,.48-2.69,1.35-3.64,2.31-.96,.96-1.67,2-2.23,2.95-.56,.96-.96,1.84-1.25,2.58-.3,.74-.49,1.33-.62,1.74-.12,.41-.17,.62-.17,.62l-.56-.14Z"/><path class="cls-3" d="M-10.16,36.35s.06-.23,.19-.65c.13-.42,.34-1.03,.65-1.78,.31-.75,.73-1.65,1.31-2.63,.58-.97,1.33-2.04,2.33-3.03,.99-.99,2.29-1.89,3.84-2.39,.77-.25,1.6-.39,2.45-.4,.83-.02,1.65-.08,2.4-.43,.38-.16,.71-.41,1.03-.69,.29-.3,.57-.62,.79-1,.45-.74,.76-1.58,1.03-2.43,.54-1.71,.93-3.55,1.88-5.18,.47-.81,1.12-1.53,1.91-2.04,.79-.51,1.7-.79,2.61-.92,.91-.14,1.82-.08,2.7-.13,.88-.04,1.75-.13,2.58-.35,.82-.22,1.59-.59,2.21-1.13,.61-.55,1.06-1.23,1.43-1.92,.73-1.4,1.29-2.79,1.95-4.01,1.27-2.46,2.72-4.28,3.77-5.5,.54-.6,.96-1.07,1.27-1.37,.3-.31,.46-.47,.46-.47,0,0-.16,.17-.46,.48-.3,.31-.73,.78-1.26,1.38-1.04,1.23-2.47,3.05-3.71,5.52-.64,1.22-1.19,2.61-1.91,4.03-.36,.71-.82,1.4-1.44,1.98-.63,.57-1.43,.95-2.27,1.18-.84,.23-1.72,.33-2.62,.38-.89,.06-1.79,0-2.67,.15-.88,.13-1.75,.42-2.5,.91-.75,.49-1.36,1.18-1.81,1.96-.9,1.58-1.27,3.4-1.8,5.14-.26,.87-.57,1.74-1.04,2.52-.23,.4-.52,.75-.84,1.08-.34,.3-.71,.59-1.12,.77l-.31,.14-.32,.1c-.21,.08-.43,.12-.65,.15-.22,.05-.44,.07-.64,.07l-.63,.03c-.81,.02-1.6,.16-2.33,.4-1.47,.48-2.69,1.35-3.64,2.31-.96,.96-1.67,1.99-2.23,2.95-.56,.96-.96,1.84-1.25,2.58-.3,.74-.5,1.33-.62,1.74-.12,.41-.17,.62-.17,.62l-.56-.14Z"/><path class="cls-3" d="M-9.14,37.37s.06-.23,.19-.65c.13-.42,.34-1.03,.65-1.78,.31-.75,.73-1.65,1.31-2.63,.58-.98,1.33-2.04,2.33-3.03,.99-.99,2.29-1.89,3.84-2.39,.77-.25,1.6-.39,2.45-.4,.83-.02,1.65-.08,2.4-.43,.38-.16,.71-.41,1.03-.69,.29-.3,.57-.62,.79-1,.45-.74,.76-1.58,1.03-2.43,.54-1.71,.93-3.55,1.88-5.18,.47-.81,1.12-1.53,1.91-2.04,.79-.51,1.7-.79,2.61-.92,.91-.14,1.82-.08,2.7-.13,.88-.04,1.75-.13,2.58-.35,.82-.22,1.59-.59,2.21-1.13,.61-.55,1.06-1.23,1.43-1.92,.73-1.4,1.29-2.79,1.95-4.01,1.27-2.46,2.72-4.28,3.77-5.5,.54-.6,.96-1.07,1.27-1.37,.3-.31,.46-.47,.46-.47,0,0-.16,.17-.46,.48-.3,.31-.73,.78-1.26,1.38-1.04,1.22-2.47,3.05-3.71,5.52-.64,1.22-1.19,2.61-1.91,4.03-.36,.7-.82,1.4-1.44,1.98-.63,.57-1.43,.95-2.27,1.18-.84,.24-1.72,.33-2.62,.38-.89,.06-1.79,0-2.67,.16-.88,.13-1.75,.42-2.5,.91-.75,.49-1.36,1.18-1.81,1.96-.9,1.58-1.27,3.4-1.8,5.14-.26,.87-.57,1.74-1.04,2.52-.23,.4-.52,.75-.84,1.08-.34,.3-.71,.59-1.12,.77l-.31,.14-.32,.1c-.21,.08-.43,.12-.65,.15-.22,.05-.44,.07-.64,.07l-.63,.03c-.81,.02-1.6,.16-2.33,.4-1.47,.48-2.69,1.35-3.64,2.31-.96,.96-1.67,2-2.22,2.95-.56,.96-.96,1.84-1.25,2.58-.3,.74-.5,1.33-.62,1.74-.12,.41-.17,.62-.17,.62l-.56-.14Z"/><path class="cls-3" d="M-8.12,38.39s.06-.23,.19-.65c.13-.42,.34-1.03,.65-1.78,.31-.75,.73-1.65,1.31-2.63,.58-.97,1.33-2.04,2.33-3.03,.99-.99,2.29-1.89,3.84-2.38,.77-.25,1.6-.39,2.45-.4,.83-.02,1.65-.08,2.4-.43,.38-.16,.71-.41,1.03-.69,.29-.3,.57-.62,.79-1,.45-.74,.76-1.58,1.03-2.43,.54-1.71,.93-3.55,1.88-5.18,.47-.81,1.12-1.53,1.92-2.04,.79-.51,1.7-.79,2.61-.92,.91-.14,1.82-.08,2.7-.13,.88-.04,1.75-.13,2.58-.35,.82-.22,1.59-.59,2.21-1.13,.61-.55,1.06-1.23,1.43-1.92,.73-1.4,1.29-2.79,1.95-4.01,1.27-2.46,2.72-4.28,3.77-5.5,.53-.6,.96-1.07,1.27-1.37,.3-.31,.46-.47,.46-.47l-.46,.48c-.3,.31-.73,.78-1.26,1.38-1.04,1.22-2.47,3.05-3.71,5.52-.64,1.22-1.19,2.61-1.91,4.03-.36,.71-.82,1.4-1.44,1.98-.63,.57-1.43,.95-2.27,1.18-.84,.24-1.73,.33-2.62,.38-.89,.06-1.79,0-2.67,.16-.88,.14-1.75,.42-2.5,.91-.75,.49-1.36,1.18-1.81,1.96-.9,1.58-1.27,3.4-1.8,5.14-.26,.87-.57,1.74-1.04,2.52-.23,.4-.52,.75-.84,1.08-.34,.3-.71,.59-1.12,.77l-.31,.14-.32,.1c-.21,.08-.43,.12-.65,.15-.22,.05-.44,.07-.64,.07l-.63,.03c-.81,.02-1.6,.16-2.33,.4-1.47,.48-2.69,1.35-3.64,2.31-.96,.96-1.67,2-2.23,2.95-.56,.96-.96,1.84-1.25,2.58-.3,.74-.49,1.33-.62,1.74-.12,.41-.17,.62-.17,.62l-.56-.14Z"/><path class="cls-3" d="M-7.1,39.41s.06-.23,.19-.65c.13-.42,.34-1.03,.65-1.78,.31-.75,.73-1.65,1.31-2.63,.58-.97,1.33-2.04,2.33-3.03,.99-.99,2.29-1.89,3.84-2.39,.77-.25,1.6-.39,2.45-.4,.83-.02,1.65-.08,2.4-.43,.38-.16,.71-.41,1.03-.69,.29-.3,.57-.62,.79-1,.45-.74,.76-1.58,1.03-2.43,.54-1.71,.93-3.55,1.88-5.18,.47-.81,1.12-1.53,1.91-2.04,.79-.51,1.7-.79,2.61-.92,.91-.14,1.82-.08,2.7-.13,.88-.04,1.75-.13,2.58-.35,.82-.22,1.59-.59,2.21-1.13,.61-.55,1.06-1.23,1.43-1.92,.73-1.4,1.29-2.79,1.95-4.01,1.27-2.46,2.72-4.28,3.77-5.5,.53-.6,.96-1.07,1.27-1.37,.3-.31,.46-.47,.46-.47,0,0-.16,.17-.46,.48-.3,.31-.73,.78-1.26,1.38-1.04,1.22-2.47,3.05-3.71,5.52-.64,1.22-1.19,2.61-1.91,4.03-.36,.7-.82,1.4-1.44,1.98-.63,.57-1.43,.95-2.27,1.18-.84,.23-1.72,.33-2.62,.38-.89,.06-1.79,0-2.67,.15-.88,.14-1.75,.42-2.5,.91-.75,.49-1.36,1.18-1.81,1.96-.9,1.58-1.27,3.4-1.8,5.14-.26,.87-.57,1.74-1.04,2.52-.23,.4-.52,.75-.84,1.08-.34,.3-.71,.59-1.12,.77l-.31,.14-.32,.1c-.21,.08-.43,.12-.65,.15-.22,.05-.44,.07-.64,.07l-.63,.03c-.81,.02-1.6,.16-2.33,.4-1.47,.48-2.69,1.35-3.64,2.31-.96,.96-1.67,2-2.23,2.95-.56,.96-.96,1.84-1.25,2.58-.3,.74-.5,1.33-.62,1.74-.12,.41-.17,.62-.17,.62l-.56-.14Z"/><path class="cls-3" d="M-6.08,40.43s.06-.24,.19-.65c.13-.42,.34-1.03,.65-1.78,.31-.75,.73-1.65,1.31-2.63,.58-.97,1.33-2.04,2.33-3.03,.99-.99,2.29-1.89,3.84-2.39,.77-.25,1.6-.39,2.45-.4,.83-.02,1.65-.08,2.4-.43,.38-.16,.71-.41,1.03-.69,.29-.3,.57-.62,.79-1,.45-.74,.76-1.58,1.03-2.43,.54-1.71,.93-3.55,1.88-5.18,.47-.81,1.12-1.53,1.92-2.04,.79-.51,1.7-.79,2.61-.92,.91-.14,1.82-.08,2.7-.13,.88-.04,1.75-.13,2.58-.35,.82-.22,1.6-.59,2.21-1.13,.61-.55,1.06-1.23,1.43-1.92,.73-1.4,1.29-2.79,1.95-4.01,1.27-2.46,2.72-4.28,3.77-5.5,.53-.6,.96-1.07,1.27-1.37,.3-.31,.46-.47,.46-.47l-.46,.48c-.3,.31-.73,.78-1.26,1.38-1.04,1.22-2.47,3.05-3.71,5.52-.64,1.22-1.19,2.61-1.91,4.03-.36,.7-.82,1.4-1.44,1.98-.63,.57-1.43,.95-2.27,1.18-.84,.23-1.72,.33-2.62,.38-.89,.06-1.79,0-2.67,.16-.88,.13-1.75,.41-2.5,.91-.75,.49-1.36,1.18-1.81,1.96-.9,1.58-1.27,3.4-1.8,5.14-.26,.87-.57,1.74-1.04,2.52-.23,.4-.52,.76-.84,1.08-.34,.3-.71,.59-1.12,.77l-.31,.14-.32,.1c-.21,.08-.43,.12-.65,.15-.22,.05-.44,.07-.64,.07l-.63,.03c-.81,.02-1.6,.16-2.33,.4-1.47,.48-2.69,1.35-3.64,2.31-.96,.96-1.67,2-2.22,2.95-.56,.96-.96,1.84-1.25,2.58-.3,.74-.49,1.33-.62,1.74-.12,.41-.17,.62-.17,.62l-.56-.14Z"/><path class="cls-3" d="M-5.06,41.45s.06-.24,.19-.65c.13-.42,.34-1.03,.65-1.78,.31-.75,.73-1.65,1.31-2.63,.58-.98,1.33-2.04,2.33-3.03,.99-.99,2.29-1.89,3.84-2.39,.77-.25,1.6-.39,2.45-.4,.83-.02,1.65-.08,2.4-.43,.38-.16,.71-.41,1.03-.69,.29-.3,.57-.62,.79-1,.45-.74,.76-1.58,1.03-2.43,.54-1.71,.93-3.55,1.88-5.18,.47-.81,1.12-1.53,1.92-2.04,.79-.51,1.7-.79,2.61-.92,.91-.14,1.82-.08,2.7-.13,.88-.04,1.75-.13,2.58-.35,.82-.22,1.59-.59,2.21-1.13,.61-.55,1.06-1.23,1.43-1.92,.73-1.4,1.29-2.79,1.95-4.01,1.27-2.46,2.72-4.28,3.77-5.5,.54-.6,.96-1.07,1.27-1.37,.3-.31,.46-.47,.46-.47,0,0-.16,.17-.46,.48-.3,.31-.73,.78-1.26,1.38-1.04,1.22-2.46,3.05-3.71,5.52-.64,1.22-1.19,2.61-1.91,4.03-.36,.7-.82,1.4-1.44,1.98-.63,.57-1.43,.95-2.27,1.19-.84,.23-1.72,.33-2.62,.38-.89,.06-1.79,0-2.67,.15-.88,.13-1.75,.42-2.5,.91-.75,.49-1.36,1.18-1.81,1.96-.9,1.58-1.27,3.4-1.8,5.14-.26,.87-.57,1.74-1.04,2.52-.23,.4-.52,.75-.84,1.08-.34,.3-.71,.59-1.12,.77l-.31,.14-.32,.1c-.21,.07-.43,.12-.65,.15-.22,.05-.44,.07-.64,.07l-.63,.03c-.81,.02-1.6,.16-2.33,.4-1.47,.48-2.69,1.35-3.64,2.31-.96,.96-1.67,2-2.23,2.95-.56,.96-.96,1.84-1.25,2.58-.3,.74-.5,1.33-.62,1.74-.12,.41-.17,.62-.17,.62l-.56-.14Z"/><path class="cls-3" d="M-4.04,42.47s.06-.23,.19-.65c.13-.42,.34-1.03,.65-1.78,.31-.75,.73-1.65,1.31-2.63,.58-.97,1.33-2.04,2.33-3.03,.99-.99,2.29-1.89,3.84-2.39,.77-.25,1.6-.39,2.45-.4,.83-.02,1.65-.08,2.4-.43,.38-.16,.71-.41,1.03-.69,.29-.3,.57-.62,.79-1,.45-.74,.76-1.58,1.03-2.44,.54-1.71,.93-3.55,1.88-5.18,.47-.81,1.12-1.53,1.91-2.04,.79-.51,1.7-.79,2.61-.92,.91-.14,1.82-.08,2.7-.13,.88-.04,1.75-.13,2.58-.35,.82-.22,1.59-.59,2.21-1.13,.61-.55,1.06-1.23,1.43-1.92,.73-1.4,1.29-2.79,1.95-4.01,1.27-2.46,2.72-4.28,3.77-5.5,.54-.6,.96-1.07,1.27-1.37,.3-.31,.46-.47,.46-.47,0,0-.16,.17-.46,.48-.3,.31-.73,.78-1.26,1.38-1.04,1.22-2.47,3.05-3.71,5.52-.64,1.22-1.19,2.61-1.91,4.03-.36,.7-.82,1.4-1.44,1.98-.63,.57-1.43,.95-2.27,1.18-.84,.23-1.72,.33-2.62,.38-.89,.06-1.79,0-2.67,.16-.88,.13-1.75,.42-2.5,.91-.75,.49-1.36,1.18-1.81,1.96-.9,1.58-1.27,3.4-1.8,5.14-.26,.87-.57,1.74-1.04,2.52-.23,.4-.52,.75-.84,1.08-.34,.3-.71,.59-1.12,.77l-.31,.14-.32,.1c-.21,.08-.43,.12-.65,.15-.22,.05-.44,.07-.64,.07l-.63,.03c-.81,.02-1.6,.16-2.33,.4-1.47,.48-2.69,1.35-3.64,2.31-.96,.96-1.67,2-2.23,2.95-.56,.96-.96,1.84-1.25,2.58-.3,.74-.5,1.33-.62,1.74-.12,.41-.17,.62-.17,.62l-.56-.14Z"/><path class="cls-3" d="M-3.02,43.49s.06-.23,.19-.65c.13-.42,.34-1.03,.65-1.78,.31-.75,.73-1.65,1.31-2.63,.58-.98,1.33-2.04,2.33-3.03,.99-.99,2.29-1.89,3.84-2.39,.77-.25,1.6-.39,2.45-.4,.83-.02,1.65-.08,2.4-.43,.38-.16,.71-.41,1.03-.69,.29-.3,.57-.62,.79-1,.45-.74,.76-1.58,1.03-2.43,.54-1.71,.93-3.55,1.88-5.18,.47-.81,1.12-1.53,1.91-2.04,.79-.51,1.7-.79,2.61-.92,.91-.14,1.82-.08,2.7-.13,.88-.04,1.75-.13,2.58-.35,.82-.22,1.59-.59,2.21-1.13,.61-.55,1.06-1.23,1.43-1.92,.73-1.4,1.29-2.79,1.95-4.01,1.27-2.46,2.72-4.28,3.77-5.5,.53-.6,.96-1.07,1.27-1.37,.3-.31,.46-.47,.46-.47,0,0-.16,.17-.46,.48-.3,.31-.73,.78-1.26,1.38-1.04,1.22-2.47,3.05-3.71,5.52-.64,1.22-1.19,2.61-1.91,4.03-.36,.71-.82,1.4-1.44,1.98-.63,.57-1.43,.95-2.27,1.18-.84,.24-1.72,.33-2.62,.38-.89,.06-1.79,0-2.67,.16-.88,.13-1.75,.42-2.5,.91-.75,.49-1.36,1.18-1.81,1.96-.9,1.58-1.27,3.4-1.8,5.14-.26,.87-.57,1.74-1.04,2.52-.23,.4-.52,.75-.84,1.08-.34,.3-.71,.59-1.12,.77l-.31,.14-.32,.1c-.21,.08-.43,.12-.65,.15-.22,.05-.44,.07-.64,.07l-.63,.03c-.81,.02-1.6,.16-2.33,.4-1.47,.48-2.69,1.35-3.64,2.31-.96,.96-1.67,2-2.22,2.95-.56,.96-.96,1.84-1.25,2.58-.3,.74-.49,1.33-.62,1.74-.12,.41-.17,.62-.17,.62l-.56-.14Z"/><path class="cls-3" d="M-2,44.51s.06-.23,.19-.65c.13-.42,.34-1.03,.65-1.78,.31-.75,.73-1.65,1.31-2.63,.58-.97,1.33-2.04,2.33-3.03,.99-.99,2.29-1.89,3.84-2.38,.77-.25,1.6-.39,2.45-.4,.83-.02,1.65-.08,2.4-.43,.38-.16,.71-.41,1.03-.69,.29-.3,.57-.62,.79-1,.45-.74,.76-1.58,1.03-2.43,.54-1.71,.93-3.55,1.88-5.18,.47-.81,1.12-1.53,1.91-2.04,.79-.51,1.7-.79,2.61-.92,.91-.14,1.82-.08,2.7-.13,.88-.04,1.75-.13,2.58-.35,.82-.22,1.59-.59,2.21-1.13,.61-.55,1.06-1.23,1.43-1.92,.73-1.4,1.29-2.79,1.95-4.01,1.27-2.46,2.72-4.28,3.77-5.5,.53-.6,.96-1.07,1.27-1.37,.3-.31,.46-.47,.46-.47l-.46,.48c-.3,.31-.73,.78-1.26,1.38-1.04,1.22-2.47,3.05-3.71,5.52-.64,1.22-1.19,2.61-1.91,4.03-.36,.71-.82,1.41-1.44,1.98-.63,.57-1.43,.95-2.27,1.18-.84,.23-1.72,.33-2.62,.38-.89,.06-1.79,0-2.67,.16-.88,.14-1.75,.42-2.5,.91-.75,.49-1.36,1.18-1.81,1.96-.9,1.58-1.27,3.4-1.8,5.14-.26,.87-.57,1.74-1.04,2.52-.23,.4-.52,.75-.84,1.08-.34,.3-.71,.59-1.12,.77l-.31,.14-.32,.1c-.21,.08-.43,.12-.65,.15-.22,.04-.44,.07-.64,.07l-.63,.03c-.81,.02-1.6,.16-2.33,.4-1.47,.48-2.69,1.35-3.64,2.31-.96,.96-1.67,2-2.23,2.95-.56,.96-.96,1.84-1.25,2.58-.3,.74-.5,1.33-.62,1.74-.12,.41-.17,.62-.17,.62l-.56-.14Z"/><path class="cls-3" d="M-.98,45.53s.06-.24,.19-.65c.13-.42,.34-1.03,.65-1.78,.31-.75,.73-1.65,1.31-2.63,.58-.97,1.33-2.04,2.33-3.03,.99-.99,2.29-1.89,3.84-2.39,.77-.25,1.6-.39,2.45-.4,.83-.02,1.65-.08,2.4-.43,.38-.16,.71-.41,1.03-.69,.29-.3,.57-.62,.79-1,.45-.74,.76-1.58,1.03-2.43,.54-1.71,.93-3.55,1.88-5.18,.47-.81,1.12-1.53,1.92-2.04,.79-.51,1.7-.79,2.61-.92,.91-.14,1.82-.08,2.7-.13,.88-.04,1.75-.13,2.58-.35,.82-.22,1.6-.59,2.21-1.13,.61-.55,1.06-1.23,1.43-1.92,.73-1.4,1.29-2.79,1.95-4.01,1.27-2.46,2.72-4.28,3.77-5.5,.53-.6,.96-1.07,1.27-1.37,.3-.31,.46-.47,.46-.47,0,0-.16,.17-.46,.48-.3,.31-.73,.78-1.26,1.38-1.04,1.22-2.47,3.05-3.71,5.52-.64,1.22-1.19,2.61-1.91,4.03-.36,.71-.82,1.4-1.44,1.98-.63,.57-1.43,.95-2.27,1.18-.84,.23-1.72,.33-2.62,.38-.89,.06-1.79,0-2.67,.15-.88,.14-1.75,.42-2.5,.91-.75,.49-1.36,1.18-1.81,1.96-.9,1.58-1.27,3.4-1.8,5.14-.26,.87-.57,1.74-1.04,2.52-.23,.4-.52,.75-.84,1.08-.34,.3-.71,.59-1.12,.77l-.31,.14-.32,.1c-.21,.08-.43,.12-.65,.15-.22,.05-.44,.07-.64,.07l-.63,.03c-.81,.02-1.6,.16-2.33,.4-1.47,.48-2.69,1.35-3.64,2.31-.96,.96-1.67,2-2.23,2.95-.56,.96-.96,1.84-1.25,2.58-.3,.74-.49,1.33-.62,1.74-.12,.41-.17,.62-.17,.62l-.56-.14Z"/><path class="cls-3" d="M.04,46.55s.06-.24,.19-.65c.13-.42,.34-1.03,.65-1.78,.31-.75,.73-1.65,1.31-2.63,.58-.97,1.33-2.04,2.33-3.03,.99-.99,2.29-1.89,3.84-2.39,.77-.25,1.6-.39,2.45-.4,.83-.02,1.65-.08,2.4-.43,.38-.16,.71-.41,1.03-.69,.29-.3,.57-.62,.79-1,.45-.74,.76-1.58,1.03-2.43,.54-1.71,.93-3.55,1.88-5.18,.47-.81,1.12-1.53,1.92-2.04,.79-.51,1.7-.79,2.61-.92,.91-.14,1.82-.08,2.7-.13,.88-.04,1.75-.13,2.58-.35,.82-.22,1.6-.59,2.21-1.13,.61-.55,1.06-1.23,1.43-1.92,.73-1.4,1.29-2.79,1.95-4.01,1.27-2.46,2.72-4.28,3.77-5.5,.53-.6,.96-1.07,1.27-1.37,.3-.31,.46-.47,.46-.47,0,0-.16,.17-.46,.48-.3,.31-.73,.78-1.26,1.38-1.04,1.22-2.47,3.05-3.71,5.52-.64,1.22-1.19,2.61-1.91,4.03-.36,.7-.82,1.4-1.44,1.98-.63,.57-1.43,.95-2.27,1.18-.84,.23-1.72,.33-2.62,.38-.89,.06-1.79,0-2.67,.16-.88,.13-1.75,.42-2.5,.91-.75,.49-1.36,1.18-1.81,1.96-.9,1.58-1.27,3.4-1.8,5.14-.26,.87-.57,1.74-1.04,2.52-.23,.4-.52,.76-.84,1.08-.34,.3-.71,.59-1.12,.77l-.31,.14-.32,.1c-.21,.08-.43,.12-.65,.15-.22,.05-.44,.07-.64,.07l-.63,.03c-.81,.02-1.6,.16-2.33,.4-1.47,.48-2.69,1.35-3.64,2.31-.96,.96-1.67,2-2.23,2.95-.56,.96-.96,1.84-1.25,2.58-.3,.74-.49,1.33-.62,1.74-.12,.41-.17,.62-.17,.62l-.56-.14Z"/><path class="cls-3" d="M1.06,47.57s.06-.24,.19-.65c.13-.42,.34-1.03,.65-1.78,.31-.75,.73-1.65,1.31-2.63,.58-.97,1.33-2.04,2.33-3.03,.99-.99,2.29-1.89,3.84-2.39,.77-.25,1.6-.39,2.45-.4,.83-.02,1.65-.08,2.4-.43,.38-.16,.71-.41,1.03-.69,.29-.3,.57-.62,.79-1,.45-.74,.76-1.58,1.03-2.44,.54-1.71,.94-3.55,1.88-5.18,.47-.81,1.12-1.53,1.92-2.04,.79-.51,1.7-.79,2.61-.92,.91-.14,1.82-.08,2.7-.13,.88-.04,1.75-.13,2.58-.35,.82-.22,1.59-.59,2.21-1.13,.61-.55,1.06-1.23,1.43-1.92,.73-1.4,1.29-2.79,1.95-4.01,1.27-2.46,2.72-4.28,3.77-5.5,.54-.6,.96-1.07,1.27-1.37,.3-.31,.46-.47,.46-.47,0,0-.16,.17-.46,.48-.3,.31-.73,.78-1.26,1.38-1.04,1.22-2.47,3.05-3.71,5.52-.64,1.22-1.19,2.61-1.91,4.03-.36,.71-.82,1.4-1.44,1.98-.63,.57-1.43,.95-2.27,1.19-.84,.23-1.72,.33-2.62,.38-.89,.06-1.79,0-2.67,.15-.88,.13-1.75,.42-2.5,.91-.75,.49-1.36,1.18-1.81,1.96-.9,1.58-1.27,3.4-1.8,5.14-.26,.87-.57,1.74-1.04,2.52-.22,.4-.52,.75-.84,1.08-.34,.3-.71,.59-1.12,.77l-.31,.14-.32,.1c-.21,.07-.43,.12-.65,.15-.22,.05-.44,.07-.64,.07l-.63,.03c-.81,.02-1.6,.16-2.33,.4-1.47,.48-2.69,1.35-3.64,2.31-.96,.96-1.67,2-2.22,2.95-.56,.96-.96,1.84-1.25,2.58-.3,.74-.5,1.33-.62,1.74-.12,.41-.17,.62-.17,.62l-.56-.14Z"/><path class="cls-3" d="M2.08,48.59s.06-.23,.19-.65c.13-.42,.34-1.03,.65-1.78,.31-.75,.73-1.65,1.31-2.63,.58-.97,1.33-2.04,2.33-3.03,.99-.99,2.29-1.89,3.84-2.39,.77-.25,1.6-.39,2.45-.4,.83-.02,1.65-.08,2.4-.43,.38-.16,.71-.41,1.03-.69,.29-.3,.57-.62,.79-1,.45-.74,.76-1.58,1.03-2.43,.54-1.71,.93-3.55,1.88-5.18,.47-.81,1.12-1.53,1.91-2.04,.79-.51,1.7-.79,2.61-.92,.91-.14,1.82-.08,2.7-.13,.88-.04,1.75-.13,2.58-.35,.82-.22,1.59-.59,2.21-1.13,.61-.55,1.06-1.23,1.43-1.92,.73-1.4,1.29-2.79,1.95-4.01,1.27-2.46,2.72-4.28,3.77-5.5,.54-.6,.96-1.07,1.27-1.37,.3-.31,.46-.47,.46-.47,0,0-.16,.17-.46,.48-.3,.31-.73,.78-1.26,1.38-1.04,1.22-2.47,3.05-3.71,5.52-.64,1.22-1.19,2.61-1.91,4.03-.36,.71-.82,1.4-1.44,1.98-.63,.57-1.43,.95-2.27,1.18-.84,.23-1.72,.33-2.62,.38-.89,.06-1.79,0-2.67,.16-.88,.13-1.75,.42-2.5,.91-.75,.49-1.36,1.18-1.81,1.96-.9,1.58-1.27,3.4-1.8,5.14-.27,.87-.57,1.74-1.04,2.52-.22,.4-.52,.75-.84,1.08-.34,.3-.71,.59-1.12,.77l-.31,.14-.32,.1c-.21,.08-.43,.12-.65,.15-.22,.05-.44,.07-.64,.07l-.63,.03c-.81,.02-1.6,.16-2.33,.4-1.47,.48-2.69,1.35-3.64,2.31-.96,.96-1.67,2-2.23,2.95-.56,.96-.96,1.84-1.25,2.58-.3,.74-.49,1.33-.62,1.74-.12,.41-.17,.62-.17,.62l-.56-.14Z"/></g></g></g></g></svg>