<?xml version="1.0" encoding="UTF-8"?><svg id="Layer_2" xmlns="http://www.w3.org/2000/svg" viewBox="0 0 598.25 565.02"><defs><style>.cls-1{fill:#ffcbcb;}.cls-2{fill:#3f3d56;}</style></defs><g id="Layer_1-2"><g><rect class="cls-2" x="341.31" y="388.63" width="2" height="173.78" transform="translate(-10.38 7.65) rotate(-1.26)"/><path class="cls-2" d="M341.44,465.55c-.18-.62-4.33-15.27,4.65-29.67l1.7,1.06c-8.49,13.62-4.47,27.91-4.43,28.05l-1.92,.56Z"/><path class="cls-1" d="M346.8,436.99s-2.73-18.66,22.41-23.77c5.24-1.07,10.16-1.8,14.68-2.28,5.33-.57,7.41,6.72,2.59,9.08-6.97,3.41-13.53,7.71-16.95,12.8-9.43,14.04-22.74,4.18-22.74,4.18Z"/><path class="cls-2" d="M344.03,519.5l-1.92-.56c.04-.14,4.06-14.43-4.43-28.05l1.7-1.06c8.98,14.4,4.83,29.05,4.65,29.67Z"/><path class="cls-1" d="M338.68,490.94s2.73-18.66-22.41-23.77c-5.24-1.07-10.16-1.8-14.68-2.28-5.33-.57-7.41,6.72-2.59,9.08,6.97,3.41,13.53,7.71,16.95,12.8,9.43,14.04,22.74,4.18,22.74,4.18Z"/><path class="cls-1" d="M373.67,364.51c5.06-1.33,9.79-3.66,9.64-5.96-.19-2.73-7.21-4.56-13.27-4.84,4.57-3.58,8.77-8.52,7.49-10.76-1.18-2.06-6.68-1.26-11.74,.55,3-4.29,5.11-9.12,3.5-10.78-2-2.06-9.1,1.5-13.95,5.43,.94-6.12,.47-13.85-2.28-14.55-2.3-.59-5.55,3.91-7.79,8.81-.99-5.14-2.98-10.02-5.29-10.02-3.28,0-5.95,9.9-5.95,16.35,0,.36,0,.71,.03,1.04-.33-.38-.71-.78-1.14-1.2-4.63-4.49-13.59-9.48-15.88-7.13-1.61,1.65,.5,6.49,3.5,10.78-5.07-1.81-10.56-2.61-11.74-.55-1.59,2.76,5.2,9.66,10.71,13-.33-.04-.68-.07-1.05-.1-6.44-.44-16.5,1.54-16.72,4.82-.16,2.3,4.58,4.63,9.64,5.96-5.04,1.89-9.75,4.84-9.32,7.17,.52,2.83,8.43,3.82,14.65,3.24-4.65,4.46-9.68,12.44-7.58,14.78,1.54,1.72,6.51-.06,10.99-2.76-2.15,4.93-3.32,10.36-1.35,11.68,2.6,1.74,9.75-4.32,13.51-9.54-.38,6.38,1.14,15.15,4.17,15.5,2.29,.26,4.83-4.36,6.39-9.36,1.66,5.12,4.39,9.96,6.74,9.64,3.05-.42,4.39-9.41,3.82-15.79,3.88,5,10.42,10.35,12.89,8.7,1.97-1.32,.8-6.75-1.35-11.68,4.48,2.7,9.45,4.48,10.99,2.76,2.1-2.34-2.94-10.33-7.58-14.78,6.22,.58,14.13-.41,14.65-3.24,.43-2.33-4.28-5.28-9.32-7.17Zm-27.25,18.06c-1.3,.18-2.49,.43-3.4,1.08-.96-.95-2.36-1.24-3.93-1.42-1.75-.2-3.34-.22-4.55,.79-.44-1.23-1.53-2.11-2.8-2.96-1.09-.73-2.15-1.33-3.26-1.44-.09-1.35-.94-2.5-1.99-3.67-.67-.75-1.34-1.41-2.08-1.86,1.07-1.31,.95-2.96,.62-4.77-.24-1.29-.54-2.47-1.23-3.34,.91-1,1.14-2.42,1.24-3.99,.12-1.71,.07-3.26-.92-4.42,2.55,.32,3.78-1.27,4.93-3.26,.65-1.14,1.18-2.24,1.22-3.35,1.34-.18,2.43-1.11,3.52-2.24,.93-.96,1.73-1.92,2.03-3.01,1.07,.9,2.53,1.04,4.15,1.04s3-.13,4.06-.97c.83,.75,1.98,1.13,3.25,1.46,1.21,.31,2.36,.52,3.4,.31,.38,.87,1.06,1.66,1.83,2.45,1.09,1.13,2.18,2.06,3.52,2.24,.04,1.11,.57,2.21,1.22,3.35,.77,1.34,1.58,2.5,2.8,3.02-.14,.78-.13,1.64-.07,2.54,.11,1.57,.33,2.98,1.24,3.99-.69,.87-1,2.05-1.23,3.34-.33,1.81-.46,3.46,.62,4.77-.74,.45-1.41,1.11-2.08,1.86-1.05,1.17-1.91,2.32-1.99,3.67-1.11,.12-2.16,.71-3.26,1.44-1.49,1-2.73,2.03-2.97,3.64-1.12-.54-2.46-.47-3.9-.28h0Z"/><circle class="cls-2" cx="342.95" cy="364.44" r="21.24"/></g><path class="cls-2" d="M66.51,563.6c0,.66,.53,1.19,1.19,1.19H589.99c.66,0,1.19-.53,1.19-1.19s-.53-1.19-1.19-1.19H67.7c-.66,0-1.19,.53-1.19,1.19Z"/><g><rect class="cls-2" x="107.34" y="155.95" width="2" height="409.1" transform="translate(-7.9 2.47) rotate(-1.26)"/><path class="cls-2" d="M107.6,336.66c-.1-.35-10.02-35.36,10.8-68.75l1.7,1.06c-20.35,32.64-10.68,66.79-10.58,67.13l-1.92,.56Z"/><path class="cls-1" d="M118.9,269.81s-6.43-43.92,52.77-55.97c12.33-2.51,23.92-4.23,34.55-5.37,12.54-1.35,17.44,15.82,6.11,21.37-16.41,8.03-31.85,18.15-39.9,30.14-22.19,33.05-53.53,9.84-53.53,9.84Z"/><path class="cls-2" d="M111.09,463.66l-1.92-.56c.1-.34,9.75-34.52-10.58-67.13l1.7-1.06c20.82,33.39,10.9,68.4,10.8,68.75Z"/><path class="cls-1" d="M99.79,396.81s6.43-43.92-52.77-55.97c-12.33-2.51-23.92-4.23-34.55-5.37-12.54-1.35-17.44,15.82-6.11,21.37,16.41,8.03,31.85,18.15,39.9,30.14,22.19,33.05,53.53,9.84,53.53,9.84h0Z"/><path class="cls-1" d="M182.17,99.16c11.91-3.14,23.06-8.62,22.69-14.03-.44-6.43-16.98-10.74-31.25-11.4,10.76-8.42,20.65-20.06,17.63-25.33-2.78-4.84-15.72-2.97-27.65,1.3,7.06-10.1,12.03-21.47,8.25-25.37-4.71-4.85-21.43,3.52-32.84,12.77,2.22-14.42,1.1-32.61-5.37-34.26-5.41-1.38-13.08,9.21-18.33,20.74-2.32-12.1-7.03-23.59-12.45-23.59-7.73,0-14,23.31-14,38.5,0,.86,.02,1.67,.06,2.44-.78-.9-1.67-1.84-2.68-2.82-10.9-10.58-31.99-22.33-37.37-16.78-3.78,3.89,1.18,15.27,8.25,25.37-11.93-4.26-24.87-6.14-27.65-1.3-3.74,6.5,12.23,22.74,25.21,30.61-.78-.09-1.6-.17-2.47-.23-15.15-1.03-38.84,3.63-39.36,11.35-.37,5.42,10.77,10.89,22.69,14.03-11.86,4.46-22.94,11.39-21.94,16.88,1.22,6.66,19.84,9,34.48,7.63-10.94,10.49-22.8,29.29-17.85,34.8,3.63,4.04,15.32-.14,25.87-6.5-5.07,11.62-7.82,24.39-3.18,27.5,6.13,4.1,22.95-10.17,31.81-22.46-.9,15.03,2.69,35.67,9.83,36.49,5.39,.62,11.37-10.26,15.05-22.02,3.91,12.05,10.33,23.44,15.86,22.69,7.19-.98,10.33-22.14,8.99-37.18,9.15,11.78,24.54,24.37,30.34,20.49,4.64-3.1,1.89-15.88-3.18-27.5,10.55,6.36,22.24,10.54,25.87,6.5,4.95-5.51-6.91-24.31-17.85-34.8,14.64,1.37,33.26-.97,34.48-7.63,1.01-5.49-10.08-12.42-21.94-16.88h0Zm-64.15,42.51c-3.06,.42-5.86,1.01-7.99,2.54-2.26-2.25-5.57-2.93-9.24-3.35-4.11-.47-7.85-.52-10.7,1.86-1.04-2.9-3.61-4.96-6.6-6.96-2.57-1.72-5.06-3.13-7.67-3.4-.2-3.18-2.22-5.89-4.69-8.64-1.58-1.75-3.15-3.32-4.9-4.37,2.52-3.07,2.23-6.96,1.45-11.22-.56-3.04-1.28-5.81-2.9-7.87,2.14-2.36,2.67-5.69,2.93-9.38,.27-4.03,.16-7.68-2.16-10.4,6.01,.76,8.91-2.98,11.6-7.67,1.54-2.68,2.78-5.26,2.87-7.88,3.16-.42,5.72-2.62,8.3-5.27,2.2-2.27,4.07-4.51,4.78-7.09,2.52,2.12,5.96,2.44,9.76,2.44s7.06-.3,9.56-2.28c1.94,1.76,4.66,2.67,7.65,3.43,2.86,.73,5.56,1.22,8.01,.72,.9,2.05,2.49,3.9,4.31,5.78,2.58,2.65,5.14,4.85,8.3,5.27,.09,2.62,1.33,5.2,2.87,7.88,1.81,3.15,3.72,5.88,6.6,7.1-.34,1.83-.3,3.85-.16,5.97,.25,3.69,.78,7.02,2.93,9.38-1.62,2.06-2.34,4.83-2.9,7.87-.78,4.26-1.07,8.15,1.45,11.22-1.75,1.05-3.33,2.62-4.9,4.37-2.47,2.75-4.49,5.45-4.69,8.64-2.6,.27-5.1,1.68-7.67,3.4-3.51,2.35-6.43,4.78-6.99,8.56-2.63-1.28-5.79-1.11-9.19-.65Z"/><circle class="cls-2" cx="109.84" cy="99" r="50"/></g><g><rect class="cls-2" x="570.89" y="466.26" width="2" height="97.75" transform="translate(-11.2 12.71) rotate(-1.26)"/><path class="cls-2" d="M570.98,509.66c-.1-.35-2.49-8.78,2.67-17.04l1.7,1.06c-4.67,7.48-2.47,15.35-2.44,15.42l-1.92,.56Z"/><path class="cls-1" d="M574.41,493.47s-1.54-10.49,12.61-13.37c2.95-.6,5.72-1.01,8.26-1.28,3-.32,4.17,3.78,1.46,5.11-3.92,1.92-7.61,4.34-9.53,7.2-5.3,7.9-12.79,2.35-12.79,2.35Z"/><path class="cls-2" d="M573.27,540l-1.92-.56c.02-.08,2.22-7.94-2.44-15.42l1.7-1.06c5.15,8.27,2.77,16.69,2.67,17.04Z"/><path class="cls-1" d="M569.84,523.81s1.54-10.49-12.61-13.37c-2.95-.6-5.72-1.01-8.26-1.28-3-.32-4.17,3.78-1.46,5.11,3.92,1.92,7.61,4.34,9.53,7.2,5.3,7.9,12.79,2.35,12.79,2.35Z"/><path class="cls-1" d="M589.53,452.69c2.85-.75,5.51-2.06,5.42-3.35-.1-1.54-4.06-2.57-7.47-2.72,2.57-2.01,4.93-4.79,4.21-6.05-.66-1.16-3.76-.71-6.61,.31,1.69-2.41,2.87-5.13,1.97-6.06-1.13-1.16-5.12,.84-7.85,3.05,.53-3.44,.26-7.79-1.28-8.19-1.29-.33-3.12,2.2-4.38,4.96-.56-2.89-1.68-5.64-2.98-5.64-1.85,0-3.35,5.57-3.35,9.2,0,.21,0,.4,.01,.58-.19-.21-.4-.44-.64-.67-2.6-2.53-7.64-5.33-8.93-4.01-.9,.93,.28,3.65,1.97,6.06-2.85-1.02-5.94-1.47-6.61-.31-.89,1.55,2.92,5.43,6.02,7.31-.19-.02-.38-.04-.59-.06-3.62-.25-9.28,.87-9.41,2.71-.09,1.29,2.57,2.6,5.42,3.35-2.83,1.07-5.48,2.72-5.24,4.03,.29,1.59,4.74,2.15,8.24,1.82-2.61,2.51-5.45,7-4.26,8.32,.87,.96,3.66-.03,6.18-1.55-1.21,2.78-1.87,5.83-.76,6.57,1.47,.98,5.48-2.43,7.6-5.37-.22,3.59,.64,8.52,2.35,8.72,1.29,.15,2.72-2.45,3.6-5.26,.94,2.88,2.47,5.6,3.79,5.42,1.72-.23,2.47-5.29,2.15-8.88,2.19,2.81,5.86,5.82,7.25,4.9,1.11-.74,.45-3.79-.76-6.57,2.52,1.52,5.31,2.52,6.18,1.55,1.18-1.32-1.65-5.81-4.26-8.32,3.5,.33,7.95-.23,8.24-1.82,.24-1.31-2.41-2.97-5.24-4.03h0Zm-15.33,10.16c-.73,.1-1.4,.24-1.91,.61-.54-.54-1.33-.7-2.21-.8-.98-.11-1.88-.12-2.56,.44-.25-.69-.86-1.18-1.58-1.66-.61-.41-1.21-.75-1.83-.81-.05-.76-.53-1.41-1.12-2.06-.38-.42-.75-.79-1.17-1.04,.6-.73,.53-1.66,.35-2.68-.13-.73-.31-1.39-.69-1.88,.51-.56,.64-1.36,.7-2.24,.07-.96,.04-1.84-.52-2.49,1.44,.18,2.13-.71,2.77-1.83,.37-.64,.66-1.26,.69-1.88,.76-.1,1.37-.63,1.98-1.26,.53-.54,.97-1.08,1.14-1.69,.6,.51,1.42,.58,2.33,.58s1.69-.07,2.28-.54c.46,.42,1.11,.64,1.83,.82,.68,.17,1.33,.29,1.91,.17,.21,.49,.59,.93,1.03,1.38,.62,.63,1.23,1.16,1.98,1.26,.02,.63,.32,1.24,.69,1.88,.43,.75,.89,1.41,1.58,1.7-.08,.44-.07,.92-.04,1.43,.06,.88,.19,1.68,.7,2.24-.39,.49-.56,1.15-.69,1.88-.19,1.02-.26,1.95,.35,2.68-.42,.25-.79,.63-1.17,1.04-.59,.66-1.07,1.3-1.12,2.06-.62,.07-1.22,.4-1.83,.81-.84,.56-1.54,1.14-1.67,2.04-.63-.31-1.38-.27-2.2-.15Z"/><circle class="cls-2" cx="572.25" cy="452.65" r="11.95"/></g></g></svg>